<mxfile host="app.diagrams.net" agent="Mozilla/5.0 (Windows NT 10.0; Win64; x64) AppleWebKit/537.36 (KHTML, like Gecko) Chrome/136.0.0.0 Safari/537.36" version="27.0.5">
  <diagram name="ç¬¬ 1 é¡µ" id="elAiudf4qmkPpapzj10Z">
    <mxGraphModel dx="1155" dy="730" grid="1" gridSize="10" guides="1" tooltips="1" connect="1" arrows="1" fold="1" page="1" pageScale="1" pageWidth="827" pageHeight="1169" math="0" shadow="0">
      <root>
        <mxCell id="0" />
        <mxCell id="1" parent="0" />
        <mxCell id="s52yxfLQdtsxLLi5Z9a8-65" value="" style="group" vertex="1" connectable="0" parent="1">
          <mxGeometry x="280" y="370" width="840" height="315" as="geometry" />
        </mxCell>
        <mxCell id="LEOb6cvdVSsYTvlKGG-D-90" value="&lt;b&gt;&lt;font face=&quot;Times New Roman&quot;&gt;Question eg: &quot;What is the pronunciation of the NÃ¼shu character ð›…°?&quot;&lt;/font&gt;&lt;/b&gt;" style="text;html=1;align=center;verticalAlign=middle;whiteSpace=wrap;rounded=0;" parent="s52yxfLQdtsxLLi5Z9a8-65" vertex="1">
          <mxGeometry x="3" y="40" width="130" height="90" as="geometry" />
        </mxCell>
        <mxCell id="s52yxfLQdtsxLLi5Z9a8-17" value="" style="group" vertex="1" connectable="0" parent="s52yxfLQdtsxLLi5Z9a8-65">
          <mxGeometry y="205" width="100" height="95" as="geometry" />
        </mxCell>
        <mxCell id="s52yxfLQdtsxLLi5Z9a8-14" value="" style="shape=image;verticalLabelPosition=bottom;verticalAlign=top;imageAspect=0;aspect=fixed;image=data:image/svg+xml,PHN2ZyB4bWxucz0iaHR0cDovL3d3dy53My5vcmcvMjAwMC9zdmciIHhtbG5zOnhsaW5rPSJodHRwOi8vd3d3LnczLm9yZy8xOTk5L3hsaW5rIiBpZD0ic3ZnMzYiIHZlcnNpb249IjEuMSIgaGVpZ2h0PSI0Ny42MzQ2NDM1NTQ2ODc1IiB3aWR0aD0iNDIuNjY1MTQ1ODc0MDIzNDQiIHZpZXdCb3g9Ii0xLjc0OTk5NzYzMDk4NjYyNyAtMS4zMzUyNDM1NTI5MjMyMDI1IDQyLjY2NTE0NTg3NDAyMzQ0IDQ3LjYzNDY0MzU1NDY4NzUiPiYjeGE7ICAmI3hhOyAgPGcgaWQ9ImcyOCIgdHJhbnNmb3JtPSJtYXRyaXgoMC4yMzcwMDQsMCwwLDAuMjM3MDA0LC0wLjMwMDk5MzY4LC0xNi44NzE4NDIpIj4mI3hhOyAgICA8cGF0aCBpZD0icGF0aDIiIGZpbGw9IiMwMDhkYzIiIGQ9Im0gMTU5LjgsMTU3LjM1IGMgMCw0My43OCAtMzUuNDg1LDc5LjI2NSAtNzkuMjY1LDc5LjI2NSAtNDMuNzgsMCAtNzkuMjY1LC0zNS40ODUgLTc5LjI2NSwtNzkuMjY1IDAsLTQzLjc4IDM1LjQ4NSwtNzkuMjY1IDc5LjI2NSwtNzkuMjY1IDQzLjc4LC0wLjA0IDc5LjI2NiwzNS40ODUgNzkuMjY2LDc5LjI2NSIvPiYjeGE7ICAgIDxnIGlkPSJnMTgiIGZpbGw9IiNmZmZmZmYiPiYjeGE7ICAgICAgPHVzZSBpZD0idXNlNCIgeGxpbms6aHJlZj0iI0IiLz4mI3hhOyAgICAgIDx1c2UgaWQ9InVzZTYiIHk9IjE3LjM5Njk5OSIgeD0iMS4wNzUiIHhsaW5rOmhyZWY9IiNCIi8+JiN4YTsgICAgICA8cGF0aCBpZD0icGF0aDgiIGQ9Im0gNDEuMzYzLDE2Ny4xOCBjIDAsMy40OTUgLTIuODQyLDYuMzM3IC02LjMzNyw2LjMzNyAtMy40OTUsMCAtNi4zMzcsLTIuODQyIC02LjMzNywtNi4zMzcgMCwtMy40OTUgMi44NDIsLTYuMzM3IDYuMzM3LC02LjMzNyAzLjQ5NiwtMC4wMzggNi4zMzcsMi44MDQgNi4zMzcsNi4zMzcgbSA4LjY4LDE2LjUxNCBjIDAsMy40OTUgLTIuODQyLDYuMzM3IC02LjMzNyw2LjMzNyAtMy40OTUsMCAtNi4zMzcsLTIuODQyIC02LjMzNywtNi4zMzcgMCwtMy40OTUgMi44NDIsLTYuMzM3IDYuMzM3LC02LjMzNyAzLjQ5NSwtMC4wMzggNi4zMzcsMi44MDQgNi4zMzcsNi4zMzciLz4mI3hhOyAgICAgIDx1c2UgaWQ9InVzZTEwIiB4bGluazpocmVmPSIjQyIvPiYjeGE7ICAgICAgPHBhdGggaWQ9InBhdGgxMiIgZD0ibSAxMjkuNDIzLDE5My4xNCBjIDAsMy40OTUgLTIuODQyLDYuMzM3IC02LjMzNyw2LjMzNyAtMy40OTUsMCAtNi4zMzcsLTIuODQyIC02LjMzNywtNi4zMzcgMCwtMy40OTUgMi44NDIsLTYuMzM3IDYuMzM3LC02LjMzNyAzLjQ5NSwwIDYuMzM3LDIuODQzIDYuMzM3LDYuMzM3Ii8+JiN4YTsgICAgICA8dXNlIGlkPSJ1c2UxNCIgeT0iLTExMC4wMjciIHg9Ii0yMS44ODk5OTkiIHhsaW5rOmhyZWY9IiNDIi8+JiN4YTsgICAgICA8cGF0aCBpZD0icGF0aDE2IiBkPSJtIDc5LjM0NSw5MC45IGMgMCwzLjQ5NSAtMi44NDIsNi4zMzcgLTYuMzM3LDYuMzM3IC0zLjQ5NSwwIC02LjMzOCwtMi44MzIgLTYuMzM4LC02LjMzNyAwLC0zLjUwNSAyLjg0MiwtNi4zMzcgNi4zMzcsLTYuMzM3IDMuNDk1LDAgNi4zMzcsMi44NDMgNi4zMzcsNi4zMzciLz4mI3hhOyAgICA8L2c+JiN4YTsgICAgPGcgaWQ9ImcyNiIgc3Ryb2tlLXdpZHRoPSIzLjUiIHN0cm9rZT0iI2ZmZmZmZiIgZmlsbD0iIzY4YjM0NiI+JiN4YTsgICAgICA8Y2lyY2xlIGlkPSJjaXJjbGUyMCIgY3g9IjEyNC4yNzciIGN5PSIxMzguNDUzOTkiIHI9IjQyLjI0Mzk5OSIvPiYjeGE7ICAgICAgPGNpcmNsZSBpZD0iY2lyY2xlMjIiIGN4PSI2Ni40MDMiIGN5PSIyMjQuNTkzOTkiIHI9IjM0LjU2MyIvPiYjeGE7ICAgICAgPGNpcmNsZSBpZD0iY2lyY2xlMjQiIGN4PSIzNy45NDU5OTkiIGN5PSI5NS45ODAwMDMiIHI9IjIzLjA0MiIvPiYjeGE7ICAgIDwvZz4mI3hhOyAgPC9nPiYjeGE7ICA8ZGVmcyBpZD0iZGVmczM0Ij4mI3hhOyAgICA8cGF0aCBkPSJtIDM2LjQxLDEzMS4zNSBjIDAsMy40OTUgLTIuODQyLDYuMzM3IC02LjMzNyw2LjMzNyAtMy40OTUsMCAtNi4zMzcsLTIuODQyIC02LjMzNywtNi4zMzcgMCwtMy40OTUgMi44NDIsLTYuMzM3IDYuMzM3LC02LjMzNyBhIDYuMzIsNi4zMiAwIDAgMSA2LjMzNyw2LjMzNyIgaWQ9IkIiLz4mI3hhOyAgICA8cGF0aCBkPSJtIDExNy45MDIsMjA2Ljc3NSBjIDAsMy40OTUgLTIuODQyLDYuMzM3IC02LjMzNyw2LjMzNyAtMy40OTUsMCAtNi4zMzcsLTIuODQyIC02LjMzNywtNi4zMzcgMCwtMy40OTUgMi44NDIsLTYuMzM3IDYuMzM3LC02LjMzNyAzLjQ5NSwwIDYuMzM3LDIuODQyIDYuMzM3LDYuMzM3IiBpZD0iQyIvPiYjeGE7ICA8L2RlZnM+JiN4YTs8L3N2Zz4=;rounded=1;spacingBottom=0;fontFamily=Times New Roman;" vertex="1" parent="s52yxfLQdtsxLLi5Z9a8-17">
          <mxGeometry x="27.600000000000023" y="5" width="44.79" height="50" as="geometry" />
        </mxCell>
        <mxCell id="s52yxfLQdtsxLLi5Z9a8-15" value="Knowledge Graph&#xa;Database" style="text;html=1;align=center;verticalAlign=middle;whiteSpace=wrap;rounded=1;spacingBottom=0;fontFamily=Times New Roman;" vertex="1" parent="s52yxfLQdtsxLLi5Z9a8-17">
          <mxGeometry y="65" width="100" height="30" as="geometry" />
        </mxCell>
        <mxCell id="s52yxfLQdtsxLLi5Z9a8-16" value="" style="rounded=1;whiteSpace=wrap;html=1;strokeColor=light-dark(#000000,#FFFFFF);fillColor=light-dark(#FFFFFF,transparent);" vertex="1" parent="s52yxfLQdtsxLLi5Z9a8-17">
          <mxGeometry width="100" height="95" as="geometry" />
        </mxCell>
        <mxCell id="s52yxfLQdtsxLLi5Z9a8-26" value="" style="group" vertex="1" connectable="0" parent="s52yxfLQdtsxLLi5Z9a8-65">
          <mxGeometry x="250" y="5" width="140" height="160" as="geometry" />
        </mxCell>
        <mxCell id="s52yxfLQdtsxLLi5Z9a8-18" value="&lt;font style=&quot;color: light-dark(rgb(0, 0, 0), rgb(51, 51, 255));&quot; face=&quot;Times New Roman&quot;&gt;&lt;b&gt;Pre-Retrival&lt;/b&gt;&lt;/font&gt;" style="swimlane;fontStyle=0;childLayout=stackLayout;horizontal=1;startSize=30;horizontalStack=0;resizeParent=1;resizeParentMax=0;resizeLast=0;collapsible=1;marginBottom=0;whiteSpace=wrap;html=1;fillColor=light-dark(#FFFFFF,#66B2FF);" vertex="1" parent="s52yxfLQdtsxLLi5Z9a8-26">
          <mxGeometry y="40" width="140" height="120" as="geometry">
            <mxRectangle x="490" y="700" width="100" height="30" as="alternateBounds" />
          </mxGeometry>
        </mxCell>
        <mxCell id="s52yxfLQdtsxLLi5Z9a8-19" value="&lt;font face=&quot;Times New Roman&quot;&gt;1. Qurry Routing&lt;/font&gt;" style="text;strokeColor=none;fillColor=none;align=left;verticalAlign=middle;spacingLeft=4;spacingRight=4;overflow=hidden;points=[[0,0.5],[1,0.5]];portConstraint=eastwest;rotatable=0;whiteSpace=wrap;html=1;" vertex="1" parent="s52yxfLQdtsxLLi5Z9a8-18">
          <mxGeometry y="30" width="140" height="30" as="geometry" />
        </mxCell>
        <mxCell id="s52yxfLQdtsxLLi5Z9a8-20" value="&lt;font face=&quot;Times New Roman&quot;&gt;2. Qurry Rewriting&lt;/font&gt;" style="text;strokeColor=none;fillColor=none;align=left;verticalAlign=middle;spacingLeft=4;spacingRight=4;overflow=hidden;points=[[0,0.5],[1,0.5]];portConstraint=eastwest;rotatable=0;whiteSpace=wrap;html=1;" vertex="1" parent="s52yxfLQdtsxLLi5Z9a8-18">
          <mxGeometry y="60" width="140" height="30" as="geometry" />
        </mxCell>
        <mxCell id="s52yxfLQdtsxLLi5Z9a8-21" value="&lt;font face=&quot;Times New Roman&quot;&gt;3. Qurry Expansion&lt;/font&gt;" style="text;strokeColor=none;fillColor=none;align=left;verticalAlign=middle;spacingLeft=4;spacingRight=4;overflow=hidden;points=[[0,0.5],[1,0.5]];portConstraint=eastwest;rotatable=0;whiteSpace=wrap;html=1;" vertex="1" parent="s52yxfLQdtsxLLi5Z9a8-18">
          <mxGeometry y="90" width="140" height="30" as="geometry" />
        </mxCell>
        <mxCell id="s52yxfLQdtsxLLi5Z9a8-23" value="" style="group;rounded=1;" vertex="1" connectable="0" parent="s52yxfLQdtsxLLi5Z9a8-26">
          <mxGeometry width="140" height="40" as="geometry" />
        </mxCell>
        <mxCell id="s52yxfLQdtsxLLi5Z9a8-24" value="" style="shape=image;verticalLabelPosition=bottom;verticalAlign=top;imageAspect=0;aspect=fixed;image=data:image/svg+xml,PHN2ZyB4bWxucz0iaHR0cDovL3d3dy53My5vcmcvMjAwMC9zdmciIHdpZHRoPSIwLjkxNjY0NDQ5MzczODgxMDIiIHZpZXdCb3g9IjEuMDAxMjE3NDg0NDc0MTgyMSAwLjk5OTgzNzgxNTc2MTU2NjIgMjEuOTk5NDY3ODQ5NzMxNDQ1IDIyLjAwMDMzNzYwMDcwODAwOCIgc3R5bGU9ImZsZXg6bm9uZTtsaW5lLWhlaWdodDoxIiBoZWlnaHQ9IjAuOTE2NjgwNzMzMzYyODMzNiIgZmlsbC1ydWxlPSJldmVub2RkIiBmaWxsPSJjdXJyZW50Q29sb3IiPjx0aXRsZT5PcGVuQUk8L3RpdGxlPjxwYXRoIGQ9Ik0yMS41NSAxMC4wMDRhNS40MTYgNS40MTYgMCAwMC0uNDc4LTQuNTAxYy0xLjIxNy0yLjA5LTMuNjYyLTMuMTY2LTYuMDUtMi42NkE1LjU5IDUuNTkgMCAwMDEwLjgzMSAxQzguMzkuOTk1IDYuMjI0IDIuNTQ2IDUuNDczIDQuODM4QTUuNTUzIDUuNTUzIDAgMDAxLjc2IDcuNDk2YTUuNDg3IDUuNDg3IDAgMDAuNjkxIDYuNSA1LjQxNiA1LjQxNiAwIDAwLjQ3NyA0LjUwMmMxLjIxNyAyLjA5IDMuNjYyIDMuMTY1IDYuMDUgMi42NkE1LjU4NiA1LjU4NiAwIDAwMTMuMTY4IDIzYzIuNDQzLjAwNiA0LjYxLTEuNTQ2IDUuMzYxLTMuODRhNS41NTMgNS41NTMgMCAwMDMuNzE1LTIuNjYgNS40ODggNS40ODggMCAwMC0uNjkzLTYuNDk3di4wMDF6bS04LjM4MSAxMS41NThhNC4xOTkgNC4xOTkgMCAwMS0yLjY3NS0uOTU0Yy4wMzQtLjAxOC4wOTMtLjA1LjEzMi0uMDc0bDQuNDQtMi41M2EuNzEuNzEgMCAwMC4zNjQtLjYyM3YtNi4xNzZsMS44NzcgMS4wNjljLjAyLjAxLjAzMy4wMjkuMDM2LjA1djUuMTE1Yy0uMDAzIDIuMjc0LTEuODcgNC4xMTgtNC4xNzQgNC4xMjN6TTQuMTkyIDE3Ljc4YTQuMDU5IDQuMDU5IDAgMDEtLjQ5OC0yLjc2M2MuMDMyLjAyLjA5LjA1NS4xMzEuMDc4bDQuNDQgMi41M2MuMjI1LjEzLjUwNC4xMy43MyAwbDUuNDItMy4wODh2Mi4xMzhhLjA2OC4wNjggMCAwMS0uMDI3LjA1N0w5LjkgMTkuMjg4Yy0xLjk5OSAxLjEzNi00LjU1Mi40Ni01LjcwNy0xLjUxaC0uMDAxek0zLjAyMyA4LjIxNkE0LjE1IDQuMTUgMCAwMTUuMTk4IDYuNDFsLS4wMDIuMTUxdjUuMDZhLjcxMS43MTEgMCAwMC4zNjQuNjI0bDUuNDIgMy4wODctMS44NzYgMS4wN2EuMDY3LjA2NyAwIDAxLS4wNjMuMDA1bC00LjQ4OS0yLjU1OWMtMS45OTUtMS4xNC0yLjY3OS0zLjY1OC0xLjUzLTUuNjNoLjAwMXptMTUuNDE3IDMuNTRsLTUuNDItMy4wODhMMTQuODk2IDcuNmEuMDY3LjA2NyAwIDAxLjA2My0uMDA2bDQuNDg5IDIuNTU3YzEuOTk4IDEuMTQgMi42ODMgMy42NjIgMS41MjkgNS42MzNhNC4xNjMgNC4xNjMgMCAwMS0yLjE3NCAxLjgwN1YxMi4zOGEuNzEuNzEgMCAwMC0uMzYzLS42MjN6bTEuODY3LTIuNzczYTYuMDQgNi4wNCAwIDAwLS4xMzItLjA3OGwtNC40NC0yLjUzYS43MzEuNzMxIDAgMDAtLjcyOSAwbC01LjQyIDMuMDg4VjcuMzI1YS4wNjguMDY4IDAgMDEuMDI3LS4wNTdMMTQuMSA0LjcxM2MyLTEuMTM3IDQuNTU1LS40NiA1LjcwNyAxLjUxMy40ODcuODMzLjY2NCAxLjgwOS40OTkgMi43NTdoLjAwMXptLTExLjc0MSAzLjgxbC0xLjg3Ny0xLjA2OGEuMDY1LjA2NSAwIDAxLS4wMzYtLjA1MVY2LjU1OWMuMDAxLTIuMjc3IDEuODczLTQuMTIyIDQuMTgxLTQuMTIuOTc2IDAgMS45Mi4zMzggMi42NzEuOTU0LS4wMzQuMDE4LS4wOTIuMDUtLjEzMS4wNzNsLTQuNDQgMi41M2EuNzEuNzEgMCAwMC0uMzY1LjYyM2wtLjAwMyA2LjE3M3YuMDAyem0xLjAyLTIuMTY4TDEyIDkuMjVsMi40MTQgMS4zNzV2Mi43NUwxMiAxNC43NWwtMi40MTUtMS4zNzV2LTIuNzV6Ii8+PC9zdmc+;rounded=1;" vertex="1" parent="s52yxfLQdtsxLLi5Z9a8-23">
          <mxGeometry width="40" height="40" as="geometry" />
        </mxCell>
        <mxCell id="s52yxfLQdtsxLLi5Z9a8-25" value="&lt;font face=&quot;Times New Roman&quot;&gt;GPT4o API&lt;/font&gt;" style="text;html=1;align=center;verticalAlign=middle;whiteSpace=wrap;rounded=1;" vertex="1" parent="s52yxfLQdtsxLLi5Z9a8-23">
          <mxGeometry x="40" y="5" width="100" height="30" as="geometry" />
        </mxCell>
        <mxCell id="s52yxfLQdtsxLLi5Z9a8-27" value="" style="endArrow=classic;html=1;rounded=0;exitX=1;exitY=0.5;exitDx=0;exitDy=0;strokeColor=light-dark(#000000,#0000FF);" edge="1" parent="s52yxfLQdtsxLLi5Z9a8-65" source="s52yxfLQdtsxLLi5Z9a8-5">
          <mxGeometry width="50" height="50" relative="1" as="geometry">
            <mxPoint x="420" y="175" as="sourcePoint" />
            <mxPoint x="240" y="85" as="targetPoint" />
          </mxGeometry>
        </mxCell>
        <mxCell id="s52yxfLQdtsxLLi5Z9a8-33" value="" style="group" vertex="1" connectable="0" parent="s52yxfLQdtsxLLi5Z9a8-65">
          <mxGeometry x="150" width="60" height="170" as="geometry" />
        </mxCell>
        <mxCell id="s52yxfLQdtsxLLi5Z9a8-1" value="&lt;font face=&quot;Times New Roman&quot;&gt;User&lt;/font&gt;" style="sketch=0;outlineConnect=0;fontColor=#232F3E;gradientColor=none;strokeColor=#232F3E;fillColor=#ffffff;dashed=0;verticalLabelPosition=bottom;verticalAlign=top;align=center;html=1;fontSize=12;fontStyle=0;aspect=fixed;shape=mxgraph.aws4.resourceIcon;resIcon=mxgraph.aws4.user;" vertex="1" parent="s52yxfLQdtsxLLi5Z9a8-33">
          <mxGeometry x="2.3100000000000023" y="85" width="50" height="50" as="geometry" />
        </mxCell>
        <mxCell id="s52yxfLQdtsxLLi5Z9a8-2" value="&lt;font face=&quot;Times New Roman&quot;&gt;Qurry&lt;/font&gt;" style="sketch=0;outlineConnect=0;fontColor=#232F3E;gradientColor=none;strokeColor=#232F3E;fillColor=#ffffff;dashed=0;verticalLabelPosition=bottom;verticalAlign=top;align=center;html=1;fontSize=12;fontStyle=0;aspect=fixed;shape=mxgraph.aws4.resourceIcon;resIcon=mxgraph.aws4.internet_alt2;" vertex="1" parent="s52yxfLQdtsxLLi5Z9a8-33">
          <mxGeometry x="2.3100000000000023" y="5" width="55.38461538461539" height="55.38461538461539" as="geometry" />
        </mxCell>
        <mxCell id="s52yxfLQdtsxLLi5Z9a8-5" value="" style="rounded=1;whiteSpace=wrap;html=1;fillColor=light-dark(#FFFFFF,transparent);" vertex="1" parent="s52yxfLQdtsxLLi5Z9a8-33">
          <mxGeometry width="60" height="170" as="geometry" />
        </mxCell>
        <mxCell id="s52yxfLQdtsxLLi5Z9a8-34" value="" style="group" vertex="1" connectable="0" parent="s52yxfLQdtsxLLi5Z9a8-65">
          <mxGeometry x="242.5" y="205" width="155" height="95" as="geometry" />
        </mxCell>
        <mxCell id="s52yxfLQdtsxLLi5Z9a8-28" value="&lt;font style=&quot;color: light-dark(rgb(0, 0, 0), rgb(255, 128, 0));&quot; face=&quot;Times New Roman&quot;&gt;&lt;b style=&quot;&quot;&gt;Indexing&lt;/b&gt;&lt;/font&gt;" style="rounded=1;whiteSpace=wrap;html=1;fillColor=light-dark(#FFFFFF,#FFE6CC);strokeWidth=2;" vertex="1" parent="s52yxfLQdtsxLLi5Z9a8-34">
          <mxGeometry x="15" y="57.5" width="130" height="37.5" as="geometry" />
        </mxCell>
        <mxCell id="s52yxfLQdtsxLLi5Z9a8-32" value="" style="group" vertex="1" connectable="0" parent="s52yxfLQdtsxLLi5Z9a8-34">
          <mxGeometry width="155" height="45" as="geometry" />
        </mxCell>
        <mxCell id="s52yxfLQdtsxLLi5Z9a8-29" value="" style="shape=image;verticalLabelPosition=bottom;verticalAlign=top;imageAspect=0;aspect=fixed;image=data:image/png,iVBORw0KGgoAAAANSUhEUgAAAIAAAACACAYAAADDPmHLAAAACXBIWXMAABYlAAAWJQFJUiTwAAAAAXNSR0IArs4c6QAAAARnQU1BAACxjwv8YQUAAHPySURBVHgBvb0JkG1ZdR24z7n3vvcy8w9ZcxVT/UJFlQABhRg0gERhibYtWTYlPAjsCIHtdtjqdgvc7rDdQwhFR4fa4WgLud2tsLsjCkUPstWWkTyELdkWhdEIEoUEBRRVgl8lqHn4Y+Z77957Tu+11j7vF7IGkGSnVPz/M1/e4Qx7r7322vsk+0/09YG77z2znec7UukO55rPdF25uRSzbHampNn/0p0xq2az/4fv+t+TJf9ZsZz8b6nzb1Wryf+rmZ8oyazz7+XcW6kTftumqvvh87nO/qd/KOP3dZ0y4fILv53/nuFafp+cbfa/z/iR/z7uYXP2+89+XVzM/56M9/eb+Y07Xcs/nNojF96VnynxjEPf+Z/FUpfO1rnwXkOPZy3n/FfOFT7bdG4u+Vyu3UM1lXNDZx+vXT33p//0bR+3/wRfyf4jfH3g7s8fjuXorTmPb/KBudPf/Uzi4BQMuf/ZcfJS5b98MPG//ncMqA9u9Z/1WUugYIL4qYF/9+HFwvAJqRhYfg9fHWeo+JRlvlbF4uoKVoLNfjOfC+t88iZ/mOST0+E6ueOVKye3cKKLZlL3wKKouF5cFZ/LnX7BVwYXAd/IP4t3wrPgGX3BTfx5z0WULPNqUx1tGHoOeim4f+GdfGlaz0WO9eVv6NfXpfLH/TU/Ptv8oSEP99z19lvO2h/w1x/YAvAdfjhth3fOqf4Jf5E7c9ZLJE66cdAxitxRGDLfnTN2L4YZ42n6e4dJ4O/4jk5tGoyDabFg+NBYNPwLV4pxCyZZDyyM6hfFwsL9cOUOg10Td/nAX8S0ddyVmDBeuRgtARZCTrqs7jiHFeIy1rv4ZyosFz+f+HzVzQ8WJhZy9YWccN2i5+Ri8p8NWY861RILxJ8Jz+rvC+ui94v39IWbuo7vgs/4wrjHL/kjbpzuefsf0GL4fS8A7PapHH2vv+i7fSwPK/dQwvhoPjRknPkEM+07CLsqlSJDj8FJGKjCAci1xFaD6TTuqi5jF+NPTaabSuPUwCLXnnuIFgGmHIuH9/VrdWGSqxYZJtVm35F91sKbk7wNpz3zd7D48Nyly6aPT+E+uphrPrB2Pe5p4awSl5P/buKi40LHM3eyfCUsGsYH/ygxLBkWzz/TY7G268JPxQIv7t7gytxG+J8d71ZsOuv27P3u+n7k92sVfl8L4Mf+4We+19fye/2dD5t/xhf+pMmc6Up5m4pdhUlOhSYvzzX8s3YcfGb1F+fCMfnrGgNSSo0HxU7MHChZETpsTRh2IRaQ7/Qyx/7GoHPC9LxcPP5DuBdcZ9aTaVp4j55+He/CRcnr65lzFgbBV/GpTpo97k6fZncxmK1pZ/Lxvr7W+Az8HOYdmASWCIOCBUUr03PR6vpl52o4llm37BKsJRZAjiU0awxzOutX/f63vf3l77ff49fvaQF84Ic/fWbs7W43andi12nAjICHZr5ouLE3J5M/5Q70wZfv72LotdvcLHDgK/2iJpaT7y+e/MUJ9uI6AHuyz7q+PEqVz/ZnSVmLg2Cx6PW6HpMh9JAxmZh0LBL8HoBaknvYgTzcq+r+sEBD1xZhah5fuxPgsGjRwexzs8PUz5lIopbMBYBHmmb5d0sTHJLeGeNDN9W5ayhabIWAWO8KzEKYgE8uaLXw/DUdy0jyf9x6zflslxZvvuvtLz1rX+HXV7wAfuz//Mz3+ip/r++zQ2Ki1ExbvfKhIlM5c7CTAM9uG1aaU5pCOX8+BfdNrs36+4W1P03TyQmQby4mQ2jc8XQhlb8QC6TymTT3SX/nTwMfVC0E/pTWYbbwPrt7cFm56cfslapFxe8xqhBwLMQrejoB0ACt7YlrRCjd7JM4BI5RrNEDL+DvvrjDU3CSjRuA0+xjJysiMDD6c+8RtHa0jluNCS86xjW6c7Xsff+fesdL3mdfwddXtAB+/P2f/EHfgO/Grp2yUHzz45gurPYZL8FJhU/r6BcNIVDqAkDxYU3mHEhegIloOmty4bMJpnhX+HefiDJrgzJCCF9YeVe6i6zI0W/lA+wPMlX5XuxkTCAiAkUivf8sQBbnG4tLYSJWTcbCS/LlWsRZlr/qGplLF88Kk1w5EYwTaCEQLs4+8QgNF/p7N9k4+WJBGGKjLAkALaey8BpYGHjzmYup58IYq+6Ea+Ru4udhNepcGYjwGZMQZQ7cNfk4TnV679v/7Ku+/8uc0i9/AfzY3b92tw/QO2myU8PmhSs6AjOBo6KFIR+Z6BZgCjVQmX6sEEVPsUjKDmHTrGo7cEIYOvmEdn0iVEDUgHAJ18HvMcaGI4iJpCWpWjDwFF0Xzxr+vD0Tw72pWIyfzHViCEDXTKtBsyB8YbHDU+AD2jXs8OYScA+8Z2q7fEFuINHPdMIqMOv8jO9mj0OIdGBN5kIXgl3DMUoD9ouwEUJf4qZRVixpwdc6aOx4/4Hvy/imrnXPtPf+P/n229/15czrl7UA/undn/qgI887uRHCvIdh1hXoswMjlRTjhdGf9PL8kD/k3AWyxfvKm/KlUnuMwARYOEm7l/4fwK7UCOOK+8ten8ZkkwRSwMYQktYnc3Eg3KtxvUTr1HGH02XpgwKbwU/AGuHhGtAy7HJarnEXnpU5E1vQn2e5nUQ2CD47IgH/nQlRDsBwEvAUMDwOF9jwxMBogxZR0aSsAe7hu36qmly4PS74IkvAuxS3ZFhISSBjdo6h5zhOHIs+lXv+5Ntf+ubfbW7z7/aBf3L3fXfPZbxTK27WrmkTBpBWpgjDfQKqKA8LMCR/OjxnF0z0WbxE7wPUCxVjAjHBMceBvmWihxymPNhAADKgagwfuIZEyC/z7WAIP1JgAT9a9Rxcl+R5fBljgfpzdP4fXAmev08YvInXouXp5L9BINWq50V4morQTud0HSamAx4J11EDEBLHw2xjIRSFqNrhW4aEuRdY7fD+XXt2XHvk/UoDfbO4gZQ2fEY+Ww6XKziosDZn2eG0sE1ZiAH1hTznfOeP/ZP77/7d5vd3tAA/fvd93+eT816huiBaYL5ngaqiQDz8WheART4zdYUkSDP58HgkPCI0o9dvBEzjdGK3lhqWIXwvfXjaTaWubwE0fWBm4IDwkTkHIAtyiAuli2igS6JtgR2I8Bf0nz2HkJ/ULuYuROzecZCHhkf997aj71r305jArp/pkxnVxORg12aGRBre3B3TLNeIRrFT8Y+O6D+7r9dzpzzTnVnZEC8RcGKB45lngR86RVjQeY/3rLUj9tr6ndeOGxY+uL2Pe++brNQUGCy/77v+zAve8xUvgA/c/YnvHUt9n8gZbccScXFfM/0xXnrH8s3B1HWJLF/p5K9ShGMEjJ24d2CCFJOfwmfvnDHxXUefRmIEi4fWJ+j2ukMc/qIibgQI+8AS8QJYOJ0weR8uqwXWjKF77Ty524ZfMGHcuzSksGgw37IGnSIFLl2jNSM44+9lmvoMV8EFX2PyR7qXbkcvV+4f/A/BMsw/LtEr7ifwrHNEPY0kk1nU0u+YZ8CmMl+8cHJuOGzT9bZFKLns+Z4g2gaOXxYesfqev/BdN77vy14ASNzMdbjXb3rYthuhXlUCRYg7aFSuCViAJY1EpUlvRMbM3yFHQpyQaWIZbUW4tnN+Rf605hqWxGLRpR3YYl4gyQhqOjsNmtI4AYZKyyWJU4DHdDQ4z0FJB4njCRea9AhYND2BN7ZTgKt54vPQZTFMBLkk9I736/pJFpEWyv+cYNWA1Cc+f2cbPk8hPmlmzp8lcEWzcKUZjMAk+BlBZE07SpoboOhNCy1dposBYtQCyrRMsHZYNBOinYQluYfNcS4tyqvfdddNZ3/zXPe/1QJw0/JBf+1DLj6LSXwODdIAoKCXRqcSC1SFfVnMHkgcmtugc7FYys6D6YUVBWSOIyc4wqka6EREoqILY/goJ59Lv7MEcD+wBF1wEnFpUr1wE9g1s/vHktq6Uuxey5UQlji6VFk2RhoOpJC4waLCbd0mTAB6nRYUHqPver3TrPBQi2UKjCL/Xi3cUi0RL2V9vkU9FhxFCuvEbKV49Cr+X7jI9G88bYcIiuhfizC5yQdgBd9QpgWfv88bAEFbuPuZ0vJwmrq7/ZfebL+bBfjRH/61dzrIuZtRSKcQZ66TNRKFe8rNH/xPsC1BzE1cDZiEKeJ4xq1WI3ZOdBU1AJxCrBLXK5HL6SJZlDnXZO04duH/aqcJBpvGmCtieQ6mFpZlLSAMLBg5/Kij1ejJqimqK7sFqBtnE1wDa2icyDIrt4ALMAzF9YdgPed4BweP4D7KCPp5plUomkELHBt4SCzpPJXIJlZtLGYfBTC4vWYtWgQ5xEpFm0IWVXZQFm60Zhdzt1XuIHfkAbbpgJuvj6QYFtoG+ZJu8EUxv+dtb/tSouhLFsAH7v70GfdNH/TbnkFevcux31soR/OdFC5ZUJ0MteYYSwG1GnExefvY7fIkkebMWFuzoJfCci4Ougba4y7skzBHKsICApolJjxr54SNJHpPDSgh/buw9VbRgP4/0Y/DXVVy+zWAYrfDFfh+j8nOAFLuBGBbB79WLwu3HR2gTZMsFv30mouRE1cCR1jcMz7TGDumrhk1B/UZ41ADw3DiLRB+0kYRXiyBB5Tr8ClWbmEWScQkVGRZYemm7sA2IJ7gDnxRgHUEFoDjcvd2rvR7t9x11y3n2px/iQvYFvtuH+wznKqswS8NGImd2O2aGg6gJYAC4uivkUwRJahVnBtVV+Jp42eJdG4jU2TieO+wGKRts8wkkkk1X8k06m6gTZXc6bhtOlqgikHwHVvGTqaeiAG7wicycvkAS/Tl0AUk5BY6Wy20KAfsOBJCk80+MMUnntkdYplJIC5rE7TnL0FeWW47V64yC0DQatFlMPmTxfuTEhc2qiTIZBMYWmbkFfDUc8QoG9vltnI4YCbX+gB8fl2PIpZYX3nJjCtMCVzGYGu3EP3htK7v9l98739gAT7wo58+sz2uH/TVfKYjyRHbtok4gqfeiTQaB080luPjJeJ47TCa4gBptSH0lr0Lw9cFrVmCy7fgFS01VVBHC8NnKl24nCxSiJnDnjlzgkj4O0wq79krLPRnnWaBx3CtlheBwq0lcRLDJ5BDq4XJ9uKnwTEgEig+sAxPc+zrYoGIMGEtnaz8xFT0PkRQ4EcinQw3Ms8SqGTwDlloH0sT41P4nh2xRo2xYsiYt7IrDJaQYiwx/jWYwp6WkyqKWQzmlAemj2EFcP/ejnzB79k4758bDvZ3VmBnAY7W5c6ldWesk5wpJClK5nCgLByoooAmpGAY1yxC1qcjnRKhDXZM5O3CYsNfdUHs64+wHDBnsBAxMFoHCnuUpOtibnwwBoWdeZcOzkyZemBNVwE3NRflFfTZQoDScRFMcmNJ8i249kUnnUAZ55jwSWxhhKncgamB32bqk8x4kQYACwmciFyLcgpd7DH871iEAWSORVQhOknhxrBI5insaHjdnORExYxmZgjFxHYMVmkfqoAucxkR0QzElXMY5KCQAXLzcDgdT+/0b7zvSxaAY8rvRmwswiIQJ+OTrNC8lpjmiEMVyxHhMlRLemBm/rrml4NYCR+fbBfvKHTqQOOOETJ13DO9+/1thD+J1+84wNzFiHwXg9xITeGQQP92fAawfC1lWnwhTD5Yi070M55z6bt7xgTTeniE7DPf10kwArtms9XCK8dcBJxsiDGcZWsZzCIeW+4BwDcijQHhoUAMx0XRRotHZcBl4GIBFVmRPodbZRQpfoUMY6cNBEuxG992eRNBRSvH9VUiPwJwNfN3FNvgGRRuahlN1Cx4oupPtAXAXyf46+fPd7GiYR7xMkzeFAs/JSawaIS0QLP8ag1jjYEgadQFW5f0UKk29U9WUoaARsi3hKXQVFKSwTgXuw/EEV++NhEIPrNwMJZ27gigGjpChI/TDnIagdKclY/vdpgmEd1THzgEs1lmDuboAG+ettyZiMOZaQwuAZk/vk+pu61ZwvxH4KshaqFdhKSltCSUKWrqlXDCO/fBcRBjkdCa3TxrQy2HSe4iFnQjpXZEUrhIZVbnK+m4XVJq5kLTPiwMxRmLYTPVBZnT/qC/6q67Xn2OFmC08c6+ZXOqeO+s7axMWhKyZ5jHXGQnS9DQfg5mMIXZxyMyN1zpu2vwoES3s5I2uLFEIMIQyq5lDuhcJvIG9BYMGXxZTDKd4sBlAfCCc9UgD4O4ASXxhD8GUKM+0VTm0Me6LwxRHrKB0gHLz3MZ01pgwPpIRFUBtoj1I9PBCW/AttZGJhUydVQ+4b8qRTHp8BziklmAD+OxlYcVTgmruxoUEXQBgGuAxhziVdsxigCFW6IPyePEtCb3+7Bcz83HKEQP4E7wO4qzOFq81b/5fi6APJQ3UbYck5bjRUF65JioFI6JE2u2I3PAPs10gJGJy9WupIWpzJNOoGrHd4PCRu2jnv433HosKMfiHe0A3QKVQX590b6KCkgqya7TPcHkwVL1SVlJuiV/GKbgSxcZOsmulNASbknUKRTmE5qOLzdeIRYW98Ec9inJQrZ/Sw6mjVAlWKSVYISBaewUseDhMpNdQ8xhkkWAJmJQnkASdl0TegUuuCy3SDjh27TpQxgilpELWDmQiWRDmsYQvOi5m+DUdnbLdpvaL/qmKwug1jtqSLu6LNhCcLKLt0KqlSRnE57KoWRR6MaQSo5bGbms388xgs5Uh/nX42DQoaId8sJ3bxf+KsnHYqcyzZs08LUGRdxHrF8DHyi4g2nLYeqxM5E8AXnD2BooP5RDTVJO/9siGQLGwTEGJmDiolNMLTKrC+paQZZ2E90XTa/AIf+LxZ5agJ9tp41UqIiso9EFgegBfsg5WEPkBubU4AOfb+ikFroS78INShRDYWtECSWiMOY1mqSttkXWLG8XqZYQ1xh35J34lEBgl+9g6OYDURmqhLnDrkuNXJVq9crqahfDTutoYmcmWSByEDFUJYX1d0yRDZSXJ4XjgwiqleGPyDiRPRg7fqPTxIUZZBY/KeZGIUgDRZNdkZa3pEkfJCURdPhtuKJxbqqgjhZltilCVNG6TdEzMW/Qy1UkTUiN9KuIqnnH6M0RrxOYBsilj6+NLGryMVnMfmXhRmZary3C11joyjkkglpa1aQlhlQwkmzCGpNyLCYMQXl5iX0IYA22lHtIIToTiVnuDJuwWFDStZzhMvnAj913h3/oXiYrqkIncd8q0kDWq4k6lA0UQs/h27nyGWArHVwaVsCtxomv1TuK7sDXR2zXL3qSNZiUmSPk+7iThWDKuIRGMKWWwIvBDbWuNaWOJreG9WA41bR15MNt9zUHoyjxVJh5DAaYvBIuhbn7mfH/WDKFmpioGloHhVvafcQPzOpZ8Bi90hQmPqH3xTq5WxhH0dILzwwuuhwqpmD66IKEtWqARvFlAuG0WFk8gbw/MIvSy6LFJYPncwcLSuuc5TrnaQpwLlm5srWZKekBLqeMtzjzWQ4Zy4d6Mg+dYmBaBGvDQt8I35yCH6AtUKyzo3xLCCPIQ7sV8Aw1J66jfHoifsCvb0vQxFz9A326RCEijtoe2Tm9FFr/FOGhsJMAkrUEUgpT3VB2EjWNd5j19xSLioMVfh7iRlLeeWYYRovji3WRa1DNPcNLRkXAGDNy8OMuji+lF0tpZac+wnNMjCyk9gHmWSz7YDpDRTiHdYQrSWJZMRbZwR1dUZSrcRczIVf4jLU0UWv4cn4k7zgVe05SLUeSjFnMpEgAOYsuaGoPXu9wt7S9o8/i2g1UY0lBPBAbqDSqKL1Sir7fJ2n7KnLiVdLljgoZf8kpfpdTgUmfFSqRdsVq7CO07Ph92ooscNKQPQUcKYLNKl9GUxhCUQxoqiG/CvOPsSBQLFHLEz8vcwo/3SmUo/lKdFMMm2NFzSXv7tebLCHWjTJIsSAR3hHVw5SO/B7HIku0QUBqKgbARlggjJ1m5RfobCZuKrzuPGYKRsPwctJ6SMZ8AQgkixmkywl9Io1NF8ona1SzSKJpmnc5EkrQUrdjRJmCpxWI0JDhuv+rq4e9v9MhRfIlVhl1aF2AmdgxZK4ScbnM3MT8tsQPmNBBNE69goz5lsxQJXLsyusHPsF0dMp+5RCMlGared0rCZMrq7yI+cvCIX1Spg7fGzpV2iDbxuikl7thKpWZ045hGDENMYnEFXARI0vUCpW8hfmAcEmZxl+gkhalqGqpk5KHMn68WYg9LSwm43+kbIpELUOnqqXw2hzTRhLNlLBtFbdz4gvxF5FNyhGSyvJJ/VRkyVLXIn+NFf12uMSq7OJUJgpMk9CTFMw5sqtzREtmZ5yaWJ6pEQINdcvVxXIkCg0LdzZ3ew2K2HcOfk4rEYNgTEYE2ZKUM+hCuMkCzaoiDsm4M3f9zOecQ74ts8SsljWCKBImNdgySsQiyqgin+jTSACFYsZvNfTx3E0apvw0Q/xxlABVe8EZx6lY4zfJWPqHIMicsqxXF0t2EeFlos4mBtdWXPCo9sWkCXPNttfDesgtQHcoOfscbGrPRVrS2hSsjf4bm8j5N7pdsjXiyhR7gsNelRJOUb5aRLA11pEkWwnqXkaOozIXUdJ0JyF4lWobtqrc7MM1nE6Rk7a055+R0laJmmk32KQ1iww769nCnyICKG4S51k6/5qjpq4BrfpcM91EHIHmiQNUXgUtfws9axXSp0AiarYZYtUS/r/5MP+/XrtAFK00sbKENfSWJap1Zf6nYDIRKczlOdk6PFXRfhFO6MV294P8bZ2DsfRJZyjYi7n094fVgDqM2v55Dmih60yZN2IyKZtk28BD3M20lBFIBtDm5CSVlcsyVskxAxfVnVy97PiKlK8sFsKBRlZUFbXqqSOljjGGXG8Gw+rP7ibukKKJLNPAPHuVDBkhBXwoGTUi8l7qXUqjZgkWU/DNnQUUUggUGCzUOkkCDlO8p5UZf88t/o941Vp1UKQy+xp4MKp+aowbEX7LGAVmSNLjdeG6UzDYylRGBIDiVP9z4wh5SCEjq/o5cYSFmANhKHYcMmpJJW3gBFjtFGNF3gGFHIycRttuJ48eNg4Aj3yAtyR0aHppSWeSN1ObyiaGKREJ1Ej9dl0Q7QoPRYCFnC4mHZIzyeHDpIcOUYk4UdF8r9A5qj5VBSTUEjg4V9ldPdMrUdMFgrfIS4s5A3EB5J/DH0dQ799T3r1YRA5A/sl2NXw1Kn+72gWjF9Dd0nPMmf6tCK8xDUGoKDKSjq6qxCwFMGL+Psgki3UCGrrsNAW2yxjOQWnvlDVBBlELXHO4uOZLKaUmOudvZePupq9m1jCLcTMBXMfqNgJ3bD3NOl/wBbemUcXu7kDHhuqHDqYqG7oroeNkCigy/LOIbkgQxYK0EpFvifg+KGeT2COkrQor03MkbhSoRlhbxddEYqbZAb0rkmtIT/jlDlOAjBorDAO8TBG2FNPuJsEQXDhjq6i7Y4oxCi9Bx1rE+y0ng+nPkZuK/LZWWtYLl3jIGAwJ9zLVQDLPlQBNj69EDqAESB0Z0eYOtCtzM4tVwBJmfQoX1zf1EPPuAK4Th5FWDVeqwjICef5evcrBjNgPMbUQ+mYcbVN8l/ukV/4nwkbcf7EWVZXdUzek0ZatyYQlRThKHOXQUJjeZg7aPayhFneNPIio6FYp3ehoiUL0eXIKIdFXGClrJ2JF4hP/2Jl+VdMhJmz2CzB1Cr+YVX7EQckldCGCuIh7Fe5qJfWBSOnr5caYVElBW5bIYnEVBxbA3/t4odTo1JTDSBDOkbOSzk/gsxmgcdTEI86mNqIGDZZqxLdIHF2pvhmLyJDc52DHKhVOsBrjLLYTxScTWT9Ry0LdhfucihsHbZ498ZG86MBRaVaEgRR3hnq1RS6MjgD88oKDzfAuUr4ia0qEZ0qtpxSJNBOQTLvdqgWdxCmr6URYOlUzCfELT2W6ahpaDEpJgQ/0rLQYRdZ3CjzHdDOfjaxmpyQIlbPRwCFAV0tX1twUqjkAi8VAKIyLinnV7+UALcHWUbGD7hnNKoTPrm1BhKlifBq7nE0UZgyzT+IsMcUu0gkTmVNw7nFvvjuqb6uwiT4XSVtU6Y5yDQhNVTre6Rq+WJe+5CZIp9LIeH30nT3VI4I6m/HnGO8kNG6UwW8Dg2gk8DWbupzQgiQZ3bnUSPlq8VtzWTPRkN4rXOAc6e/0JVhBk88tAsuXUlh1+V3RzcrYdia3pXFqop3KjUEBLRNHsnr4t393sfPvNYleDLI1iJu8i9FbeD6kZnoVmqXwFPJJelilkFXVP8fk7axB+LJwHJIz1dj8/jVutTvwzWNfONsw0SwTKzXoUe0WrPzJZxY7vO+0SEeOcy8ClR/Wzp4jzEo75qxpmXzKWcNwyXf4kW3nY5+8WfWLJahbCw4hNUuytaYLqm3XllYwqi+a7VYg2wavNDcUOzZ2f3PDmrymAgpcRBInxsnylXFDZVCL4VEjQPq3Dxn6VoUrwQ6q/UAVmCbWwT0HCupoTvNOX5atlc2KL0+hyTeayyZXtgAvWmktj247/QB9b4ATjntMzhVGT4MhyZMwArhxki+zVjN2/jZSr0iASHgrDpiLDNR0j9zCkj9bTwCofs85SqaDR+iYsg6LxRBztAZIC4gYn/g0XwY9x8FlqXcISLgImoKY39KF2jKGW2zl8FmIupme2DQNCVzR+LcNJ5fXhT+eo7mFXQF/Mljh140RDDOBYW/Ey4TrLboL2VqJLETSkY18DvoIXJdCWtZv53oGu2eqLZqSjwpHH6s3jFSNxRBm1SLcS7HamyASdEnudtGnfDGvX5s0j/jYUvT0MWXtwMrVWT64jnVnEQBiELItO7miRI2f+Pw5y+djoEHkkKTpoIWvwjQ+YJtpbZKNKzbEvZGOTXUTfgMVPBpYYRT9RRL3sFZYFJ0WbchCOQ4kbGoJyZhFPUGzCm3Q5bLkEaNCun0/QlvuZkjOW5KN4fMcgpJItBU2o6Ef5+IMgYnSw5ojKJ1q4CeLKIwMRRInELMlPFGmMz1JB7XSEn/fRYwek93V3GZYA8TFJQZOL5LlPpDz34G2GjtOBQu5tm4aKcSaoeFHyAQLNLV7GhfC3MoMcJEeXEDvfHrPd914riHJxgd2UHFqjnSpRJITTeB6O8dEyQSz1oH5fYRp7r/r8e49mtbxiupLCiIgcRJGWdJ4KZVix0aYmoKY0qzmSFxlxvgs607CG5Vk2RX2Lt5SYWeQZDInyijmsHgEiqqqVaubKLrZ+U0GTn7NfhNYQy44lRb2AebkEI62jSgyqZf2TTRuwYTNofWpQtJMMbYKH2akYqIC5KVwGzC3AD3LeaIyZ4a2DdhvnlmxQnNbRRPnqGTIASyY4Zojv41MQ0FGcQtu2pZ9z39vmb5UiEjNYNh0pG8pDsGOx39+hW1Fbf0UO08iyRrtWZjOnbcKyXYLuyrMDe5hStqZUv3MEU4pLKuTYntRolGcGlwIr9kYvaTohDu+uYSUIiOYdsC14WmIY0mWzaGnDM0jHxJgsWRZzQYwipTFJcrGU6SRlREcFCZB/iXliO28AKVqnVRRCYUjWauwAdkg46xGmDC3UDAp3qdJIn3bCy5Y65nl15iUl4b5B+pmdBDavnGWbWVipWR2/qgRtnTR0fOiX+myJ5ZgJVZJpU3k5XOKCcqKSkQSOg8/s1/AAteZ1RhhDRzB0K+JPxy9L/C8G2byKO4I7XyrQWziibZbc5uZqkWpJM1MM8+Cza4BXI2ZGAuLXEflZwgaE2MCa+ulhcUR3AncxdpoFlLdU6Rmig5LqioKxK9+RUXzG5FTbSIV7PwRv7Nyd+Lh7WKrMrcIN+WWFKFQAwG6pdDKKqxg3B/ugPIvPEBpob0GlJ4StWfxRlrYzq5RR6/f2SAps5LlmEpkeoMZg0avdE3woJ2Ll0Zd/QY7vagOb+Gx4LBInBx4vmnacVK2Wk5M0PTMXhYuJkQCGNDC3DS4ipH/IcuGBEza+a85+IxWsRMRi6hJYWxa6UC6FvLtJGxS0nNUJuE+dhbTGoi7gvTDIBCtp2g4pdxDy+tfiSTmFrrx2RZiw3fXmEV/z6on75Ji/FxTgPdwq2XPr7P0Hxwz92/t92nxFK6H4obWoG+xcmuZ0jR3FFuI8Y2F3sCK4lwtAKRTSzyoydQUtTvqtpHhQoIlgvIR1CNCrm3c04dsdNB3eaLk0Vd1od9HXR7fs4vslv99hO93k3bdSc9NQF4N3b9z7xP1iLImNTJvLISASe22AlLBFmqvdrJaUeadWghikk7h/aep7HxnH2InRjBd5NpLeQ481wagcrdZDEYRSpiRXeUGrVEfCDwxh5gpmEBWDiOk07NRrNqF3jHG3QLMUdcwpygSieCbeZpJ6zGvmafJaUM3oGotH7NUozlGcBJ4/KlyrLkSuuChGZKkOSpayo7f58POLfOkylmVOTswwwuUkENhQfQtoSKQIjOr3UbjHOEdfucCF1FWcolVOpm7H/4NLBV7+/r39x3d7vvCXkD8QLWGBkmrW/QzJ5cdwkbu9hIJGxExEZ4FJy5Dx6zOLl6ne6F0rFgrZSuxg5lSnaddQioHYIsxjVx9YQ0BwV8VkE6pDbpFTG8igHKEcswbdGRaK0vsxKJmboIQsTLHUAjkaNDJUvYhiClBTCWGwNRj0oeHi8018g7SY5QW1VWFyT0TO5FikwBU/nAOPTtv3yjHOXLJQOPjJJHC1PTuxhVJ/VqRz6KZDQzQsjQI+47nhR2PKGUWY4deOX1SgcZiyGGJ3GIAx82YfGfqBplncAMSaZQrHTaTKvSY4GEdIMJExxLO19dIbslZSzmrhRqmLWRT4hYsOp80sDZFYYuFSY/kERMv8rnFgpuvdfee8ia6Z6sk5rVn9RXCRpp33qLfUcFcfBbay/kKNa7wUaQc3RomtJt3uIJhY4nyt+eEpWhjk8KKyM0oJ1KiGJ6sa2FYKvMlgig4fAtcYZHkDbGHhY/EogALl0PY0eoFJFS0XTKDKWaYUIZNW/fxgz2NAcjyR0NWfDoMOUyq/tz6Q+z7zxa9+/teyHnbnqdTD4ISOQLoCFh3V8MqRU+gmlfaldNkatk2hVXLjW435g6K5NlmEfMH49hC+Rr8Rau8sUiskCa2Eo2zOg1pUbTUahMUZkbCnvmHWECzBKA5Fi9kZuIFpogALBZA/GniTFILIElLahETJ4U0TZ1I4/3nrvnmWISBOQiUE+ewb21dWTkzKZFQIrEjXbvq0MFRz0WVMiVWHRI6bPHOfreaJEqxsgKdrqhkWuVQqIZZ2NOTqnmXQ2K/4L0hEyeAxoUhGSctstVgWhy5slp2DjSLSUTefCrNjCre7moK9Y1MXGsjr1hYmr/m53c0tnU7H9kEJ/S2o6yABbhrYLf1GkwRg0NyJcG6ft4wAf8ATMfimqMjMRtUzlF6FlRSSOFm9FfqxMRyHmb5dD5T1BuGweG1uj5cRUw0rUqOdL5F1i/0FNwQuRF8eoe+m8Klwc2G2LAEewR3MuBFZxU9Ew7NElgU6wJwRH63hG7euhAoqsxKGa0mbKjMLJ4fPUL3AcPEAyQuFpJXl0mxPbiCo7WvSH/g/b3iyRmBGjWOFIIVbmrlWHo5ixY28tXVWg/+BvpFxfYCZSGpgoBFUUmEc+U5NfkBiltFcItUdgx/Ubi4C5Xw2db62+T3WeRRcpjstBNKqOWC5GbWCLQolcNuVQOMUZNIUGhxb1kAaSWq5O0t42cWE27CBln4i+88S9KHMZgj6uFcwj344LCrGAYSypUuNWpipjoI+fZpUk5qCrl2IrjzB9tUvSjNlw/mcExzkkkwRFlZtV2ocnG9tPO+2vb3Z9tfFbJhdCPzoG4WiFyX1U53lRwBzP521IDLGl/pkmGNAMPEz/LrpHfHLZM/UisP8pn4rxNKh4qGOhY+94KTQDIEpWiswJ0jljdx7qVG3mHSzisNjbcIJqqnoCEq4gGsqDZQ/YTn+P0UEYrJIhAs9wFKU5SGiylU/iX6KM8h8EiNpwlLUOVmKGWPlHzrRpIDP6AhZ23RSCfrJAzcFrVxLvGXfozEB9u7Ye354lxn7cg8SUuXV0ssE5ohNcnolC0DIOk2Zq2nHx0W2LxRWQD0vJ1Xln23X7+/tRMHRjcz+sRfuqzmEJM/bDdokmDKhryNUMlCBmZKuKQgYwLxp6CeabtGLYZpilCpEToxkZCVsTIJoSMGu5Omj/2gu6UAFXv7eDp45RzkWrkBtW3JuwCS1nJulZOzdIhzvwsnyZNUPR8p6alEn544maRKiimJUlx31g4HPkpJNX41QOmQJfjooyKqgTlhgxCghMUNKs6aWJe5jgDxsoY53js2bST1+vW6sJWKbYKinAUU0lSjLZm/7kYDS2tmyM1j4rdaAHOJAs0qMFg7Tsx2XNI17O0lOzj0zw4qOYO/G9ESAK3bHA98xx89RY/yM//mGV5vjh7CkHYjR1C4b/QcNTeZF7p1+sBvNwI0yB5O8n9VDt9ueP5Je+Xrb7AnHr1s93/sCVtzsI3ixxSdS2+6ac9edod/5rFj+9THn7VXvf5au+1lh/YrP/+YPXjfkyRdtuATIkO6pbub1AYOYRhnoOMEyzLVUMN24YJbzwCzK0p3CUTIc2DMuhxl3BZS7Wh5m8WjYCFMvjhY5OoRwyvfcIsdXrtvv/pzD9n5p4/kGpKocXZqa9kspn1DIYVQsxeNVyNhWYqYzZ4PuVVacS6SZxNtkpfHFEL5MsbRJSIw+m7mROVe4GprykCh7Gjtz7TqljRzw2l/sOXItVXWGBy/xugP5ngAD7zdjHbjjYPMKtKx/RydbjuT94hIgisvsoZV/Xv0vBKalKA2e/IIHUuyTpxa2fU3nbBL5/3+MdgpElMUs/qfq72lXXfjvl26qN4A+/uSsi/3enXZXPh/U6eM5dwFOh/C4s0KmbFQLULEebLduRJdvtI+zpofF+ULi4RcPFdkL1PNd42UfA7xhrVWPYEPwGscXnNg1z3vFAtqVbJu4c5CC1gV7qGXsCc5fU4KO5Wzw0i0tymRYQQ06RfOk09bn2YqXyZrKntIh2VW/E8qo8fgoo3uodAajDa6z3h8jVx8Vos1n5DrfGD9/33Rbu3Ssf++/3zPb7jyD8y5o8Bj69/bP7mw9pX7kUokESZCtSxMwUpW8E+f3UUFD9K+Bdm+KdgwPNc0BZ+wc7rcdVTaTkG/YmRHta3dAUxT5u/f//TDdtU1e3b+/MZUEjYx9UwDjjo7mGHHGiJtlgTJAwgKpGiPj7nLlHmcBeBMWUo2bchyIZgMFn+QDRQJVVqYqYZJUeVbdvkBDiz9dt2Fr12IYph2bxagYQiqrSvHoka2UPkRtvwgu8lPY9Mod7yhG4De7nir4om+yGfVToohCCJf+opDe+krD+3ESY/ln1nbvZ961D722cd9ont746uvs9vPnLb7HnjGXv7i6+2Ga/fs0qXRPvyRx+3QJ/rltx3addeu7PEnN/ZTP3PeBieCAPba10tuP7Tbb7/aFp5CfPbZjf3yR5+xy0ewPhNR78v9vme+6iT5gmef2dqnPvG0/cbZi/J6Pnq3vfwqe+kd19nBqcGeeOTIHn/ksiaXc6e0yu0v92d81dV24M//mP8c7oHYrQjo3ub3f/Htp+zBzz5jn3vgkr3262+0q69Z2dkHz9mZl5y2q67es2fd7H7knrOOYTAjSzt1Ys9e+03X2+mrBrt8aWsPff4ix+fkqd4+8u9/wy48e1lp9iphqQprlCC67qar7Ktf80JfdPs2+rg/8cXz9slffsQunl8Ts+yd3LPXfcttdtp3/ehm7KEHnrBY1gr5/DIHh0t7xTfcYqevPvDcSW/PPnXZfvmD99vRxW20zlfzy9xFDiJU0CSCYG22zMptqZIpMBUnPZN0aunTPbp1vUyfBuvwNa85Za97w3XO4G3swYefctNh9q1vvMVe8pKVDSeesZuu6+1F1x/aH33Di+n3L17e2jVXLe3b3vwCu/Mbb6Rk6cJ5983XLe277rrOza07js3F3QJ4xSuvsyeePPbJX9v11+/Zm+68gY2bslueV7/uGnvZK6/y3x/t0S8c+e92dudbnm83XX/A3Q5f/9pvfp7vxmyf/+w5tyy9veK11+2uDfB6xhfg177xBh+kbL/+mWe4+175muu1sxAF+cie9N+7/qZ9O3Fiybj36qtX/Pfrv+l51vvYbNYT3cqb/9htLOGGWf3mP3Kju5GlPfP01i5eKHbr7Vf5f4d2g39uZINGnFHoQBj9EdK+W4I9JnpOHO7bN3/Hy+0q9+dffOgc3dCZr77eXv+HXmzDnu/e1WxveuvX2LU3nfIFf2xPPXtsL7rtBrvezf/OBPi13/jtr7Cbbr7GLvvvP/nIebv++aftLX/6a63bk7WG1YH2v5FD7GmG8weKgvQeQosZJhHtyh3QHLkPzwdHtjjwBXA02fGlS76rOvva177YLvhN/tGP/6q7pNlOnO7tL77tG+01t73IPv3w49aEop964Fn76Z97zFfWKXv7W2+w667v7bO/traf/ueXbVom+/N/6dBOncp21em1nX92u5ukX/mVx+2hh57ljv361z/fzrz4tN1669XcUbf6rnz6ya39qx//InfRTS84sLd85wt9UV5tP/Xjl+wW3534+pf/+AE7PkKmqbdv+eM3OxA8aNope+XrtCB+/t89bL/xuWfo5t5y11f7Z07w5ynSvtxdrV1IfH36l5+wj/7sI26dBnvbn/9qtyALO1j2dt0LTtKaPPXExn7y/3uEk3L9dSu768/cyN/bevh74OP0ilddtYuSYJo/+gtPWfbExr0ffcIX/UW3Rse+PEb7trfezgk+cWLfrr3xets/saLF+eC//JSNvt2vOrWwb/+Tr+C10U9oudfZWbcKR5fWdvbTT9Biv+oNZ+y2VzzPXnjmGvvc/Y+RMGPnm5DLK03QRSEJC2HcRCwjdMlHHvplHuYxbjzwOzeQ0LjqxgPe9NTJpf3V//wN9tyvF91wtXWXVg6Wlvz3Iw96UPTIKavbaptLPqC+yT71ibW/cLFTh76g1ltfACvGsZutFsDWzd/nfv0ZlaN76Pnw5y5xAZw+vbSrT8tNXHPdwt71V2/9knuf8AE5dBMNs/+MW4+L57ZWg717+MGLXAAY94WnlfHZ7Wa2Lzz4DKaYWcgH7ntGC4CYYrtbxPCtC7uSRn3ikQtRtDG7iT32XXbCrczgEyUq9gsPXXDX5Bto09ljXzh2SzXZKZ94wKZpM7iFOLDncLr+dd7Ofm5ti72FRx032Dd+04q+/cQJ+fq102Cnr9WifvCBc8yJ7OWNbc6NRP6n4TL8gS4cnbcnH71oN992rd368pv8PXt/rpVuAezDI2sWIrUIlaThRGjJ8nN/wH7uELL5xdYHtqjH1k+P2egT2rvJXgGoDLioaNRnnli7ib3gD0SHJi7bbefJYzfFWy2A7CHjwv1VHQbLgfEOri52YnPJTbFP+KQXmzE4x3rhhaPt8cIBFUkYtPFQIzX6tTaXtSuf9nuf9XtbxNtY0dvt6AtqHddwILbJpKG7kFRxN5tFGZm+CpsyDDT7201gECifujF6IhtJnMvbyyHwMDV+JOUgASe+NlPdHVO7v9ra4d4Xbd2dsIuXrrblMvIifv0nH5/t/T901l1PFGfgXT0SeqW7tW/6lqvdsm0cY1x2nz17SHqK2OFoOmHHRYM3+mK4UK7yJ9o6Q7vZLcrkUcuhu6g3ffvL+B6ff+Bp/nmNg9jnnblaBbo++STwqpROhRVGgzSLyMkjahn9is9ecgPk/mnc+CQer+ykHbv/9cWAQxHcLD7ywLH7Pzf7vtMe/LXzdu/PPmkPfPyiPc9N4In9fTs+d5JZOu5mH/ytz+IaVHLIto7OX7DLT1yytYO3ps7NR+4fLw+7iXnZK07Y5rwjj+NqX3W7/Nzn7r9kD97/rCbYB/UTH33agdUT9vBDl+zGF+7RFJ87N+nZTg927QtPUPrduXl+2Wuu1YV9AC5drLQQAJgv/prriPrRM/D1b3qBPlJMfXmjwhKahnUTVmJH+s/W6959fLKoC2HxzMO/ocX3Aje3y+Fq2xwf2mu/4TpbrrQAjsfB1m4VRkRZbgkw8ZujSj3ELV+1x8986N88bT/700/bQ/df2OUSsoPJR+4XPnrFy097RLXyaw9204uuJQfAz/gGfeGL5NY+84nH7Jc+/Fn79Cce2VkA9FVUD7TBt9WSGcDJ52XrG3Fz+Wmbjx1kX3Asd3Gz5y5zHyG4lWeO3JRvmaosY1Iho++KtVu6X/rwM/bNb7nOvu0dN7tv8x19uOCL/sQ/flwdsdrDE3GinOuyf+8afm9eG3v2TiHI4eD49y5enncL4HVvvNbO3HrC3YSue8HN3f2fPvZdnewjH37Kgdi19p1//la/92zX3qCX/CVfDDAqv/ThJ/zZbrI//l1n7IsPX/af77XMCRNYGIyP+mf+8HfebG98yxm79aWX7Orr9rggOJkwi5M9R8RbdyqpNphbX1nz2AVt6xbg+KRHIaPdd+/GXv7qlX37n7vDF2Lhs7c/EXqSnYvQmdxfnB7yhc8f+8LZs2/9tusd9U/uJha7++Fzn3/gsj3y0GV73s0H9o53PN8uXfDdff2VsBmL+NFH1/Y1/vdXvvYFdqNjB0QTDbkgFATLiy4lR5tTvvsX7kYet/3+GH7Jrbib/3Js3be99X947/YIJtiNzfac5eVabVeRSpyUYNg6i/e4+7aLT2/s5OkFs1FPPL5xYPeEP+gl9tJBkmftJujRh47cFx8z4bNcITQa/WWPiJCPfNIP3G8eOzb4DR+AoyPHBb5zn3xsbb/4wad8EPb887M9+JnL9s//0aN2+fLI3flFv+alZye/9+DAqLfPffqyx+yP+zWOWADyRY8Mzrn/Xy7V0PEzn3nW7nNmb7st9oWza3v80dH/813l11nu6bCFhz2E/MyvPmXr7WRf/OIFe+Jpf+ZFJtny6Bcu+gLcWu8LBKASP197nI8jYnonYC6dT+4Ki51zOPHZXyse6s3sPfCYY4Wf/3eX7OZb97gAPvpz/tzroNPd/I9OKm3RYsbZ0Cd8PI/c2u1jPNzN3XfvZfvsfWtfPNWfudjTTxW/x0V3DcUJq+qf2dovf+i8ffGsz4Mbi88/4OP6MHb0ebdm4g9+3d/7s/c94S7d3PWM/nzHdDvn52sMDSKH8bzl9cMk3RLFLe6S/s4PX/are2g1XbZledaGk1KNrp8dSODAkBxHzeBekqiB1bhouABiQ9If2zC1KDkX/2Q+uW/5NPrLvhORQSLJ1JeXMitk5iacn1MDvGgXND6HjGTU/6OziGr8847eZC6vTqpwhuzK050w8RBIAr1BL+hIV2XrfWVYu1opr2G9kz57I4mXJUQic4ocg1S4akcX+Xd0B0IDic0JtwoH9qKvOuXcxUkHnJNTyUd+7bWD1d7+wrsVBbzv+x638xcKj6cZssSbaB4BpfSyA8WbKGxlpxRJN+NMJado0chpqUZbq73LjPq2jrXWztpuJ6H4fumW49pzPq7obOqm3sdzXVZcDAt/HwDTwcHjpfo8u7xe0SrfkH/RJ+6IfZXHfOCW/3hrJ2ePnRce8/vqm9fZVtc5wweTjRt54iaTn/Xv+c7fZtGPq3YEa5uxFEe7gVSJTOGqk0IFZm+Rc6SdjawivD8mkD06QiHDpAmTe4V9/pjPxmKiBkO5iokaQwFB37w+gJm7csJBjXS9RZVAvvsd9BuO0RlQqgLWzRfFBrS3L6bjzcBFPVTl1uGXL28WJN2SE1TDsJHsDW1vkwpMKSICN7E8Z4uy9n0z2u1Ojr3qdQvnIgbfcQf+b4Hhn/23F+nmxMx3ZD6p0CXr1zs+UE6xxqFQiz0dV8O2MeycUlHaQBp44+EkJfq+ayefYNRO4jDK2YH3k0+fsKtPXeK7453QrGPrOZbJB21le369y75onOCbEGIdOnd1h12TP+34b7TFtIb83h/ETV1eVWbvtm4Q+nUhh0x1LTT9nQ4unJNoR52HhxLyEFv6zZdFQpFxjmLMFGf8JU3etjS5WbBincIU/D40gOgcBlcyFg0YwBayd1okM5+jBA2caqsolq/bTIWqXVVOJ54VUKPLJsIf1gj2aprQpUEdTcl8QwTj0Y5bh3mNeyxUZeSk2LxKkcwxvn/vuymj5mGYlLTxFPglB2v/z93H9nXfcMZe6L768Bp3Z+5uPv7Rtd330WNaNiZ6pqSOJLCEo6wVejHxfCWAcZz0gefM0bOg07Fy+OW1g796tGKGEywoT2BPUlyzV5MHrMebfZPcbeCuLr4ztr5Lzp3vbeHvuzrhFqFc8nuftMvlOs+VOO5zt3HKHrb0v/zAM7VfXfZU7XnlkyGvujAzfMCxqb1TfvNmCthRonix1bGLT94ppasSGplxdSfOfVYfACSKeiR7IqRS1ksqWFbQ1qhYDf37HHLmcVYd/By5cZp53KsJOWdV3/c5nijrebbQLHDxYhGqhcyWekn1GOIz0+xU1c/jeauydwMru1tljsQyEIFAuLpYjTKtPeuWHWc4Qj86jFx7F7x7x+thgdGN8N+6HTN8eJc5SJmaoujEoqwsTjLDhKO7OYDkFOVhFPqodxGsBlwAmPoM94tFutCRcxeO9zxyWHskhiPskJjb8Oyg4+Phil4DJ6LsL6w/ccp3tzNJLORcdfQ76WoP3S5J/qzq28rTW9TEqYQIqouGkRJnMAFmrVLYic9IJoH5ktkuPMwBX31Wmpc5kXzlqJjWbxI2nmVaXFzzc5pLZZ60KZW5cuMdT3VROdRclDtnKRcyj7NKsLdQCmMhxoETU5Sm5V6FL3XudSCFSVs3jYmTl8Jvs3EcZ6VyXBYruIjCWgnWKM6qtGHtHtfUFF1FOsTFEo9M0aEkqcMZFVQ1lEtxhhHaydXIG4CVreOkhcUopRKk5jhunpXA214LwS0DEnrVQ9U9p5DLRn0P9h0Lobp6civniVcuqOp+hc+Fc4ad2e2LhyDpYPDVM3EFbvwig9vnA+fqN8c+mBvJkVVW1kqWjaYotURnVNNoSmp0qJKODyT7IhRFqOs7niXfbuLFYREnaIWNAUHEvr891EFIvmaGYTU3tfLEOrnWTQzfAyiy6AnMjJs/7MoJvvVGqiAspGGp+gGEZkq6jermNfc77ICnHlhPCgIshBcBcvWawjvb7YKYgQqjKTr6UBQbHTtrtMTDn11h0Sdb30bV1RyaEGQEa7Tg0RmHAtAs3SoS625CyICua5O7a9TFssUelfFJizy3pA84D0Qa1db9il3f7JK6jNLdgT4+kbh42SsBNRhg7SbW662Yvj1y8FcuQI2LI8jc7+HfKNyII1LZ6IH+dlD9G+uLZvbLwYvA97Aff5RPzUXug9gBJjR0bRQ1a8wkaKw6ZJJt0KCyiT5DUlXV3aKTkjby50nWQzUNEmS85utO28tfc5JxNb5+w8PAn/jRp5yelaSqSkpgt3/NgX39G6+ym18sTuHsg2v7Zz/6rJ17elRJtVuOw6sH+7a3nfawbulIPDvIm+zej1y2n/nX57XQq84lQoQDHEJrNkd9AaKKTmln9o4mQx11jFmTxUVFudscPQjTTn3M8w42UiSxiWVSBZPchNRSPHMM1go1kXtSYJPm9escOeG072F4t0wExKyXQN8FXxCLhSxV5+Rad9cf/p73ErYNapEC8cm8LjT5aiXSlD66KXdvJ9QP8l6mN5S4k8AJ/D61bLM6XRA9FHXl5GR1NQBZDTlzAEtLoSy6MvENUKZsu759uZcQUh3A1BEcoqav/0PX2hv+s2vclJqHZped6Zrthbfs2atee8I++8lLzshBCGmeRDppb3vH9ZzUz3927btm9lTzyl71+gP7nP9745HRvqPyv/CeG52sWdICPeik1LU3DPaSl+7x9R/69U3k7aXY5RF7WWNmYfloFXNUFcHFZiJSWhZMQoqF0eoMuihVGyeFhina1XxJJfQc8i6QS6NusLOfnTKf7PI2SyLWL4AVJLvHPVmTMNXQV/gzfce3/pX3pmFmbT4LN9DaNKqAudvk7U1n+KnFeY5aunZEKh50iFAwR5FJberYKu2aznWSAlk+TvLxLiab5jSaMbTedq2qhZMeGjgVToT8Kje3Ywyj3vTHbnICprN//A8etPs+ds7u/5iTJPvZnn/mwG58wWCf++STnIS3/tmbSNT86D/8gt37i+fsvl+5QDHFi287cMvR2yfuvWQvefmevfrrTnHX/+9/+wv2qx+75NnKY09Nn3LL4Ln+nz8vyxWHXbBTFxTPvcI7LFb8W6KN6A9E3iQYxxTdzmIRIE3NTmYmabj65+bdaeXRs4Oyt1liwF1r3KhmNVUHaYzgKvDtedLyaBXE4EeGXiesSN2FfrUe2vSeMRsRI0P5O8dBA7VdcFKcjyLOWVJt9RGOnR+oFHt46CdV0YbfpjCx6DwcETyKc7GDgSKgR1j458ci4WcDjjpePlxJ8A0ckhTnAhSZPgDCyT/zwltOOo3sk+yc+rlzG1qEtJ/s3p9/yl75ddfYdTcsHSAlu+aGhX+ut0fOHtmFJ53F9Ena+n3v9TzDa95wlb3IXcLeidnZycv2L//pY1wAa3Q9B5nTKcbfbgpPGZtiE5RWfBFwgWY4KVHGo+sYmhprBZiezTLnU2AYLnjKszInTHWZleEc+jPkkLCpNU5RaEscM7VmY6a+P2nXPzFFCIPkGvWSy0qrPM/RL5gd2hxSbjcSN6J58bz1B1wrjMsBqKx1n2IvQBU4zjhcyn3eUDrG/etiIVG20LcrhuZqL1o4M85I6Y0EB8q/hk6WAqaqRviIp+fJVtb0+TV68dedHpCxRZIkehEaeDCI19+gyXnq8TWvuUU1s78TdIdIE5/0HAP4jqsij4BFgmJUMJkwjxvHQshxrNyCXHtN71Tq1pMsz9B8L3w7nfBF8x1/SsmX+z910XRSj9hJHEM/R5UxVMIM/socBR7RlHpVCabHDWFU9BqK2sbCZAFdpNhNYzaTJ6QMVcfJkhzLnNCo6FcAHaFkV0OOZipNm0aBcYhk2CneM744nURgMrFfwmLPF/J27UBho2ZDkjWbtSNV2C2/V4ElwUmWCVpiBS+i5BmgpCVSkrpdjEV4QtVDUdCQ1TwRZ/gCMNFEIULwwefp3DWsWIRF7CsQIeJk6jWgWgNp/Usk62A1lmxGIVOHaiX8faxqVyMwqp+dvGZhixB+rjdqjde0gehphAQUrMjqQBXICB2xOE8dZnvHX3yBHfrPPvGxC/bhf/skfW+n5LpcIp6c1UJTxPtawNpAqoXoV6qtWF9W4wma7KxCEyatMLqjMA6sBAwOgB3d62xxIFe4v6SClBL1gJS492lHJ6PXGT8TXU3A72x88S33A0PN2tz9MyyX71jhO2SVKqMXbjcL0AC1y1fjQequHTuXQo0jWXqFLjnASmaZQHSrqI1AyNTeg0whkKyJPfe4sPow/1GaLp5Pk4yV3ZUgbkymtfXdp8Ap6TCH9fHIp0JfAgoqNRS0Qi0/f3R+7ckVRQd7+x1zE2zEEMEMJh9fx8eTGlH6AB8eLu1PvfOFdtp/9sl7z9u/+slHebRdinCVzR3h7nqcUqZizKbjn+KEMkRCjb1EQgl1EH0Up2ITHK2jeAOTPGhhz1P0X6LPU5ewGrWROvMwepdpDe6oeJ13bOyXRCsy14imqs5umlTCzggKDGVZSO+/kYsSWdOpUmjwK+9h0qsKG3qnMfeTjvQdUoCd8E1I+3DXEgwFABmVjlXnDbiVRZRGzzzanGcAoV9AtEWzEHow0VHF0ukYehE0Wlb2JX6zMZJPPX7MAUWqmG1rTWzXyVMDgeGl81ubjjZ27inl2V9w876HSap5XPn77TsXggUAbcHFZz0K8EVz6po9+84/90ICxl/80BP2sx98ku8pmx4hmfFccT1XuEri73bgBKIcSOzHol3tC2BvD2Z4QSJsD6edIYyGQGZEHcXIRYm/jxsyXgTh3N3RD4BAuFMpXg4kmeOoPRBGU7rCK7DVbZUlERg1pol5QBcqsU6tJpoj9M+dktjlLVnHgR9EnLr1i66r4vrBb7KEajirkueEP8weGWnVxKeqWhruuVaYwNM4kvCAmPmo2VOIU3d69hQTn6P0UE0na3AHAFdTDbl0ygF+FWc/8vBl+vqbXnTCXvXGG+y+jzzuYd5g3/q2m+W3P/G0X2e0Zx6b/LOX7Hn+ua/9+hvskx97ijvtm96iDN7noDryGzz/RQf2lj/xfFqPT3/ivN1/3wW7wQEkm4r5DS88PbGPAh4CaB8NLHQmkRox4iUFoeQ7mcWY1YdpMUw82pXKKv/7Hr7n3Pzlo6rk1mrLnkEonbsMdzHq2Nka9HcEQJYXaqcDsg5AgQ0o5hrjltXxtYWfgxYBv9cafOF6f+9/+uXoaGMBvlTxi5fc5kTtGVOHcfIUG6+4LdkEh73w76DNCBo34EWu8pfdx4ELc5RSRyysCluxZIksuk4agwWZ6OdTFDlWxUbJIjcgn0eBhqkOkJ04u9ZhM0WzjmrXXr9nb3nbiwj4nvv19BNH9s/+rwc8ylFt/YnDlX3HO279LT53bP/s//0scwav+YYb7bXfeIP9dl8/+D/+uuJvGq6ZaVpS11OU2SX9CNp8LChU5OYoQV8ucVbB0rOV6OM3ir5m7K5qYBK+i0LXuvZM4PEltZ2FQdkcyTcq5AyuZFOjjlCAkFxAFl0PSzR4XgD3cX7ULY00E4gioD5O/+Bv/wKr7GmySomzeCp7AgPJHkN71w18OZii0VfuxhMMkHxcQk99fJ9HqOlIFE9A+gJIdpW/yH5cDxMIldReUbk5dzNXnDQA7A7GCuG0wxfqd9Pifp0PyJRuJxvSxXPmiIFbD6ATp1d2+6sOqVjC1Z58/Mg+9SuPM9GjquLKFCvEJbe89LRd44sGA/L0YxBkPOUuYOTOev4LT9qNL5JgNMfGmGaxODik8pd+9mkydKr9m0l+lWiepZwCbK0xSaO6jvDNw1YSbV8M261bAV8EAKN7S7V0weRNoxpisaYBnP24RyQPWnlzMTFiQzn9YoFbFKT35Rp6VQ4ji8rTTwCwB4Ssx3Zib/ZU+JKVwViGsDQbd0vp//57v1ITW4qqDo3TiIzghu/OUGmdltSVMTYlxB3s2Af0gr/ZRROFO2bt8Mm/DwS+Aq9d5kh+qJDztP/7hC+Cg6JdvA+XgWhgVjYQcbWOQwxGrapnAAWNJhKJriUAlXoSytcRKLXjXCKaaB3QW7VR4/sTD79Sc4dp1iEYJWoOa4r+wTDlvUXvAJ15cLweGKsv3W2qaVaJLilC363xs46MVQNLnBoy8PTSQUmfrkRV8iQuBGH0thOvMIpa1sFcSoGLVV0KV/ldqDE8TsRluK9Ocq2khFEQuhjU8QRajuX+zMXKBhLzhu1r8h5K39wCHfUejQyod4iTKyV74eSCzVoMMx+OHAHi/XEgCYQkKE4DB/Jcsg+dNITHUN4EXcP2r7mLDtZVuMIfE9KyJ+nDVct3nfutk+7rQM/CyC3hRoJcwTIYSwvhFMZ10Zk8B+KiViGOnmN6NZo38UyhvoG0XUxG/zlF61nFBaJrM+v4ujhbr/UgzCoBRLSSlHRhjj6XL7FMKWruZIhAmS8iXBvptjJJoY7IGbWseKKBr6PWLYiK9hZq65ogzFQfUKbO2XCHjTMRv6tvwKBf5j22xx69ISO4rpxUZ8QMIumFU797+xOPzWUrHKS5PW9MZdZlojs7WB2x+WavtmVFiBrjNKtvPaF+kaT4BMKFuqY5OjctRMrg6DQ0JMZEo7GTKdnBmNa3zobvWEn8TDgrB9gBlHHSyX2jD+Sj/ruPuNNYVZ3i4+koO6yyEqkKAPbq8EzrNJvSwg0I0Y2wKZW6dugYOglAxEzG+XrRe5hhawDOUnQ4FqTgjGRSEDCwElABoS0+d6mSPjBIkG+pPWDajRcWDo5+YyLHdJJKCRfGY2mDqJHliXQ5UbiOrcFGQOqc9HanhJDIMfUzSp2EHysHhhClTr4RcRBVv/TRdPa2G31efCevHSegWgvGCwTPEkW52LRjjTHzvOo+ZeC+SFRzeXDAFoGTsmQWfexZXAgJ1MDhYMWt/3U56Izd5XpkWnfjW2mdxNpR8kQBycB/LdCBI5Ao2ssco1ef/+wYDRIwsYp6iS+odaOJHbgDH/UfoR4BVfeDD8JV/rJXYQcwpq5qKkl+JTOmnUk8yWX0nRIhrNFnVnKQ26rRkU8ewKLhS4RY6oemz6n/Ec8vSjLVJJ7KRPdUg/ShiWc3nSGsQKfWNhH15J00rQYwa21mjVC770IpZVIJ6bPGsEHdcYNPwazgOLisI+rEKm6ZY1n0WzvYO7ITsLwH2S55/nt97JspS9MBIIvsHw/nWyohBTYQY7F/EkfT7LEJR6/dnyPp0nNXoaULu1cwdMnRf6bywQ98FZ3KLJb1GzhWcAoK2jt06IRYY/RcwAg9IPZfAK+uKpzcy2Xnlw/gO3OJ7hlSG12M7qCoqROgmu0p5Av8e8uqLhm47iHU7v4Ay74drS7FrfoXxT15NlCcwBW0Ky1cbfkGUbXRgCO8TDGdoTPTVRCN96rsHcIQ7Uqr+fGJkrLShZKlNmZOFHaNDI6wgthPYg1iyfasRdFXStGDa6aGP9WlBKMpuoNPSscfLI/sAMxe5/mO4dgXgrsCXHh/bSehxzw+8Gdc2bRZkNGcQzcA47kd1ePxGG54acQmfYmHq7WBD3K0weJFzr6WUOfIlKjfjL+Q+5qVL4yDipYus0XHVV8QiWhz4+vvOC3s2cq+9G7qt7Q06M4xxqFUOtRUKbIhkkSste8VEWyjyRN3g38f3USf8Wfc792PlS35dZB/q0WNLmKyBvOsiGMqwRYl0cRqmya4U4KpZMMGHpyhbh/0wYN+LXp9xHiI1GQPnyzwOmR1Ky3RkqbvJ3GUVDkHOk9C3aLtLFxPxPM8kUS9l3bdSeuGXVKtqBcSTyiNxFxrio3NyBY8VSLYg+GIPMvRDIlaIbXNo3DcRW09mYUUudLoju8gwtkTW9jPPF59Dhl2IVliQebUCHS5+019/Hi8KmhdmFedzyVR6Er5avzSfhl5rg4Q9imf9Kv8bpCQXww15tJX72Xr4ry9hahMKoZ6rniezcfWsUovb5IUxThGZmAIqKAXlmZYjKySQRSxzIogaP6xUCvApZJJKUyueu8kNYDoyu508BRRhpQ6C36/GYca0rQusjCltXip6hEkSKd8haj5uFoVKO6JrRDDI3YfWFmcI7mVeYSb2E623GW8DmA78Bo56URWhHvAA+M0EGcs07FEJB5G1nngAp6mfd/5zsaMPd2Ejrmf7PCULyjHBLXvaH24qHwkV4vERJYhsxOGiGFZipdm2haPWp/Tjz78mLJ1ahqVosKrtUNJfqO9Xt1DZ199A45c8U/vd10cP48egKNUr37dI39YtFuA1YCvRVTwLFat70xYE+gesNNWJhCnw5N9xycJUpbdzLN+4TKmrY5q5WTUrOkZlFYlIOsqNfkI1+R6TBOAFDYl7TOxBUv4W6s4znvRIZSzdms7X4Et73H0VolDrOLQh1Qk7+LBlrBiRZm+1iYXk8lWuM2yYh1ksYWEfUVH61Kv2KmQs7K8a3CzDwtzAFKB4eWE/8aVmlahv9OkbqUoKBn6Y1s5D4A+D2zqQYvYMRRmrkLd3rVzQ1ct9GwpdvREUNKakdAowS/CCqClWRfNjkIQqUUhkoY9KTEDPtk9T9dWaxX6VV+9o4/yKQ8jWWDCVa7OGvCtJ9yvbbjoFnbEnMRMLKG2qhJX8IDqUKZW3sPYi0ieDMmnWMBo9sTsVmGlLbYeFgkAbsc+SFvhnBm0tmOOsezy9jpCTkybDFyNM3syowROOE5Yx2SyN3MwgkmJIHbigG4wEvfU7s2ztZ5sZdsp1Q4PwahpRUkcqpd5bjP+JO290HG2MOnHPvFou1egLNqSm5g8OqNkPVwOC2SYK/CFORhdIntAQkaMEH5Z1CTKTcxZH5AzkmaXXSauBijiOTW0Zj0fNAd65uP3A/89s+HQLPdV9AAUSXJAZh7nyvZzPkWjesvQBC5oznvHBmZXThnzCR7wDJMWkU8sJeZVJhzxsM4nZi7QB7fjhFKOTh/sUQfM/Lzm0XASjeRA+dqFMJdLnNA9iNeXMsaYvWLybZnjxFKLdrcoksnKW9DUzrs2uilPO7/MuoVZTYKQ1ZuDbYium9xxBN2dQtFEYDfo0I8kBrBzazwxG7hgilctLR1LjZli3dzjXEKf9CHR6vV7DrrHJefo/DkHfvtaqehckyABGxwQutuAVQaSpV6DHeGOsWjP8nxUbswQV5RoJMRTxOEPLDj3aAUnnKIJtRArpgAjIBxE0YrT18kWnT7Lq0488KQ0hEwdgA52kGagU6u0ImJF8bqp8dOsPsQq9OiIbNkUManGbQhrTZUN2h50s+RZbGjdTuGO7tvBoW+nulMhdTlEMCkOh8QJJaYTTWZ3K8tlDSPZk7NXT2KRAR1b10FJPKutffAK6kJaxRtstRxGtBqDr4efg7vJOqF9je/PYOayqXJbhSAcb7xLF4e/TIorYLRhJTbTCSqwQA+j5c6J/S2ZWDKoIUaB1FnlFh0t8sLpaDX6RryB9RVdPakzwC5iRmuQPJmIdaSvqrs+dtjtI0kWnpuXhHy5AJjvkgmhZ8lxkKTpAZj2TWWXMo2gnqHPbO00z1GqIkCsTluxC2VQaWEVIhWmxLRbsbuiXbEDqS0XARcTkbOYszmsXOu0SbyCu3RKW4sPWXCR9OERcVwctX2gaqFW9t0kH268Prp9deyuLjKnNx2v2w1g6VQDMaeQboNQWyoc20Chk6ILmpv3JRjGTtgiL43CESqfop9gPwzRll+EF3bNNKp7OKKD5WrDRY8IbTEURk+ssNoIS0DmDgsJ/iCXI9hiupceD9/66uLvfRp4Ufbrs2gDT9WqaNMCfyntCtGwjnKN/OQ0qVTcul34WKVn0o4gmdHHmQCFi4iqAnDUNQ5Z7Fso1AUm6egGcBAj0H+KnrkCYCEPU8dq8usDffRKII3dSyWfbk2V+pLjdO0aR872JFs0GRbPLeUyu3JnZeCpQYRvrmqyANUTDq4gX0+rQrBD62BJFqLGTlRf58znJ0vcm7KDSS14yVv4vRcAzojXg22lBYzWt5BxCYcjRFY/wNWqSt7FVP3MjdinDWsb0MBq7ckfNM6AxRvZv3Hr4fM5x/8bX4T+Vr6oeh1M2EAfdsKWprArNXas7Q6DaAofFm6k8NNJvtUT3EpBIgHEs4dC8RKHHNME61gEZvRUARPiiRS964jq8XtgECbtcKp6+pCsyd1UnExaRtMJ3+rf18c5MlQizyO7bBo5BrWz5zNauAIPtVg+5v5344521U3kCHgqWxXHf7RR3cOiVwiaAgAuPIQtToCxyXXto0Bj6RxEYg4/NZqYYDeab5fMEjeFhQoakZ6lJSTFPDGgBtO5Xi+EHAa5EFhZqIeUsMo04a2VDWleB72Qt2M8FwtgMnVkR53HYomWtBuawD3w/h72bco+rQ+Z2mTnwM+c9SueEXQsROoYVO4SmH4sn6Iet9x+7Vh3ChprEBkKVcgc5hJCxcqHtzj+lPF91SEF0v83oqWP41cry5ZyE/zlHBEFSKMa8bdUQzVqCFko0gmUVmuBfmGSQ6efCnuULsikKEzVscuJ7J5TS8IPUcpOMwq4Wp+zIHzn9xkZwA1ND2LoeStCjCnYqlM8ukiogYfIOYeVklAzBWXOUBT/VxYse2+lX4J7lePNErAaDTqwgNycDSuRSFRIIrMIdhKKnjwShHZRtQ3N5ciIwf8bYNF7dQnr5liES9+Antn1hbPN8zk4IiU7kkX3yG63EOiHi5QvScJ9OKcw5zNDE/Hsk/x41hExFh29jVMgwcPuqLMqvDEVkU87KpooepTGju6FgThz5b1FXQCHMURz4Qd0NLsWBiWpkdwS32cko0h1aAuxSJXvK3tCnYKUDMbS6j54eTTK5IlkhDZTCPZGboalM2mQcJFYoc/PxCQN6MY63eUXUghIATCZtIrKJ0woKqOleRaF3LmPrmwikcgBqOQtikYWCrMzrc3MhY7sLSwaTMSIMe0GXhOZQIzjONeg4wvnD70EeUobop1uYNXjQ9JYNmIkdpMJ7Zckf29RAJpwWnZDuWmMah22Em3qRF2DTQUSwzOdOCIErWNV1Nih3YvhZ41zd0SPSQpNjNDR7yZ1j+a/hxRRCSOFkTupHXfHg6MCIyBrSHFkPHuJHr4pcvzq9t0EbGoEvfVRHsi61XBTKn1dJq253ino7YQMnhMsvZjRESHbvIhzjRYEh8XfdRthH88AAO9RNTbFLV3XL+L7QLA9gRt4TrTpQ/SFsxS6TnWA7DnUqaaQ5V2d+JGSlT5mmArr42F5T8Fp1pgkZTAlTWsNrlaay8oW8udVxzJHqGJxMhXiZh7RZtQOFXLJgUqzihxKKHuYX6+qOmE3avrKOCyqqNV6l1o4U/nQiCiYkc+tVDxFuCTAxOPdAaTaTiL2mHchqkSNPZdeipM2okRzF2FQCm3qAE7sibN8oqYwjIM6idE6ZQpB2KkDKyeKOPHs2zh9E/JygD8geBIs/Uhgh0opafKnOCx6KTUV2NWqtrXUR3ShVK4Rr+IqEJKUKIsHS0rptzZXHqKCedRunXjySqVUbGRL3RKYC0riOH0ksqAzV7+IOLTGp7XNEJxsGK52vXIiziU8iy15VkyXzCs7TkeSNxdloZiZ63RCBTpLqEN2FHHMWxFEVYcQEFQWna+HQ5Z69oKXQhLMmUSiIU0OqRfPK+gCNBYBRGoOkGbPOlxh1zs48gaYoAnuqErpw7CMIV4mTGmNEGW5lCGssTBq4BfU+LMxs6mztiqg1VsLqHmOY14SeQjhGIuApw+SqJDI0VkEQwOLPsiosuJ1i1RGaJBNN5hKMIwl8E+heIWLIWUmjYgamI4MXR94DhSLovHTCLJry9wBQk3LK7acUR6nUwJqkLoJEQbqIfG5uajD+mqvp0XmyJT6UJ/74SwEDRjgEWfXYvKzum000kVYSp2spUyNRFGrfozCCwl1ULG6oVkaFgvVoGUBr07CPfm8WneHQWug4nCnlKOluTjxxPBzZJFHjoSIDorK9HkEe8AJZPxEXqkVHXVBwdgl+XNmR6TOsUknnLYJBxWdybmLmuX5wuBCECubcgQlqqOAAWxudY0K07Zx0CP6umChAGTBYhDLsBQ9qf0LVL8ejoGq3pCu0FE8sLCqIDb6/4w+i445oBzuozN4x3kqDMVxKARL0+aNM34Lto/BaeEgmFgrEVVW3cAcNns87O8vRKiF3tIf7Fw/5eU5hkDzpOpR+PhksULlGHIn/8FDGliZorRtjZoA+uNyJbTLSDZHJwruTPL2YXe1vpmFUlwrnJDiUIW5gTuLFDV35sxJ4DGuRaXVhQcI98ysLZK49SkAXooIg0sGO7ZOgSEioYUBUF53By4FKlWLKKo6uIasSe4HEVZwI9R+mICaUu2ZLJ5opUxO/ogBEzbUSP6+33Nqes5XyCf0PkAFcZ5oTbiL0Q0BOQTMAyUGOMCj8nyGgXmAyrDUot8SRDa0HNvJmcqoQAbJ6wvreEb7e2XpqDxCv8CpFZiIifXN9fF+sbr+48g/gzuXHgDnzh5pZ3JcpiBllLVSxfAQQouOTAZFlFkYve1eNuDq+sYdK0SyEiY0Mg4Ema1mXi6G7dRCjCG/LqUR4SLTwDMtAo56IfFBM7mICLCaxYnbZCx38K6PPMcYVcaZYhWqgbocHc3Uu1/Rboril4k9fahWBs9RlQhC9hQZOIWXkyRcZaBqmNhJzpxAl+VsWbRsiSYXFNl0Mv8WxFvuxXEorzAJ4Eoxq45fIK6mLvQGmaQUvTHGOgcGQkr9eHKQCoVwz7Z8yyC3eABmKJfI4CZal3O03f/inzxYLTRooH3RSDC0iZKHQZZU0850W5w/p2ZR7TSvLnZGiV0ePDl2CB13F8ycRQGJHCbcjZSts9YHt53OzxHtKwEXUrRYViq7Uq5dG1exNRQOiIGVwdxGlNLJgpEHL7QEYiBDytUWFSxBH4c3DUuGwPN8zA4aNQ6SIkGOtjPowDUtGQnMKVg4+vHM7yOSwFOvVsgQrpUux78HHTqNM5VnFNgiuVRFB+ukts5dS+JJrE1wSFKNVlcuSm1uiLa5oDfO5kEr0S8GncKOI3QhA4OqqqiWAiVwWEfjWjoPRgcFbfR6+4vvekGKkwg8I9j1Z3oAPVYZLthVS5NdGH/OSYOP3n48MoVK3C0HVocx6obzHPBZ4m42pkGrF8T4DLWSdvYQx7LvsomBDjQpKWTaKnNmHxyS8wKpuVErNVmDUym5iXUaFDsUCwE5iHlW8yjuqjKoASaegxy+eAZmFieJSIg6R4r5lb/H/maySyQRpK6IbNDWBv2G2yHMoF15TEzU7rEYhJnvnpgC4fqMplJsqCGNAuntFDrDPuh2IHOezzBpvOSxaJVbNU+qOm6X9/d7QkkNSwCFFXDKIkv0gX4DtCXoxRiHWanZFBpGYCzKx+ketAD6D/lnz1A5u0L9nq826Iuh34+qW4gIOWgwQZNMMbTmZVpTNMmSpFmmPIc52vqTzcej++jeoreLEHtV9yxp53KQToMWVhfn2mb1KWAJGTHCIH076TnhCIowLcJQCM/Dv4L5moq6kGCA0fMwxWnfOJxpLqF3TEoMWUQPk0X4FLkBKn1nKXVS1GO1GorFMJKvYDcwBJzHS+cFoDKamJtQZTOPZVOqvAb1DTO83SirmJQON/pj7Ru06MU/BlY1F5p3bg7oJUDhTsIRHcUGOnFtLqEvLMozSFMquTwWT4G+YSNxL9YqVoxviisLIKXVPR4bfnfl6duzJrLv2d279s0VYIAXMlsIvcXUkCnks3RTyMUs/kNBxIKmHk2KdeRqpt8bYxEw3VyyPue4ArRmYZw/BYiL7JdJZEkunWSRxUHWqkRAnpyLiQuh4y7nAdMsRO3YMg4nEUI7ySWT5FZofTkxigiAJSgnG6R7gL/Uqd+SlDXtJ/v8sfmTQs3BrU/e23r0JU0hsocWZV/I9E1U9Rg3yhiJMfzfIvcCttph4jo2Kh7h0btVYK1Gv6UWisLdzFluGbhk5Z/dwKoueh3ACZHutlAW11WJQVB72C1m3h8y6rwpH9otgH0bfmKdNndLwKgmQxQhDiGr9gEtYWqA0BQFRPeL7rQWimOHbtahzRNRyRCceAkLkrjqYe5TOyoN3qyTDoGPhkQ4CSKdxsES0U7n3IhQMq7qHWbI0WY2VkvOakrFo95N6VXGMWDZ6gWJQltzS8zoVKMnkVLK2Ll5Fv+vJk4tLM2BBQTsWI4GUoYnb8gNorUr911aqrsquAEVWkjJg8Xu23MIJTAp+NZzqUZnstJRyFGzMqOd54Un7rOZYlhICNKqYyMuUjmkWLB1Eju3Ik/LjKUv+P2lLBssGIB2v6ecw0CxCnjjdI/FHPDrX/2LRz7ou/vOkuM0rKBxTUk1Dij0fdNWL5pGTJmb98WK38u9pEZ4YvbfA2U5Hosb4CAInROtb1WWRYVuUm8ADoBvk2HvhPCgcwnJo5PWjlbmuYsysQgoq0QNtZHVRfOaA4ZUdbSQjqAIkG7sQBnEIj4DCS8C3TDDioR0mGZDJTS0tK+VcjhQuVTV5JB6B68vsDiowRNb4gxMwY4+U1OhDNfv1/Np1YJH4ysgacyo9pGAUvmTOBkUqUALiLj/CF1RURc4qK9gmlTlxPpENIa+JEvJ9jSLTlEctSeS5yWd0n7PO99165uvYABs7EvHP+nPe6dCvU5xciuy8x07brccoGGxokiChJOCtNC5z/pO17EKl5PTq23LPB6pyQP/NdGklSBSMit9ex0e7QNVlwe+QC5Y2k50I3PIA7KOJAuYaBEyBm9eRWOrCFO1cEwEt75DjMN0eiiAHJI30uzD7wNrLIR1ctmdpaP6QCV0AE2g0iV1TE1MJV6EG0iphBVJ0TRT0rQp1TiNXc0eazqm1p9PnpVbEu0t4UqNSZ8D9BYQVagUwt/rglpGLMIFG3kEK9kIjySLDVA9sGp4JOM5b0d1KkUNIVRBPNCSXMaPtHnfLYB5eeH9dpy+z0mcw+yhEAQYjNxnpTfrqHCv+kKocQgRskmkXJkmNpZIlRStHopeZtjbVykzOoWuedSWP+CS/ptf0OIjlFntyxRjFoH6mVu3XWatFVBw+mOrp0jsIvHCkJrVO5NdKQpN1iRtLL/C7zPjaDzHGHl8HX6dAs33XKBBbIpcmrUgxsAXNJvTgtzFQFPFBjbqGoLn2UVxCmBbyT0iGHp7FpNGYi2pkjhXRUdshEFsJHLIWFCqBU9QW5Qg6rnbVaib4mxBncFsKgfXDlGtY5B1Q+TrfLTPljze0+Y9t7/cdderzzmd+UMwxZtxzVM5R6eUJhAL681ODMLz6Ubl2XEc28jmyr0Ikl4drYAduqVn1TqBn/7ECcsHJ6zfP2XDwUkeenhwas+W+ysHXL6DlwuCoboQY4FYXDu9xKGNwh3KBbYOWCaknXstKjbjDWFpUS4gU0gxMDcBE0rCiHV+In+Ym6git3qe1r1hXp1MhuyqohfWTvRmTd/H62ABuTX02D/5tcdtz1CT1gPtaxdqnUc2spSdZcg1gCQijKxIhMd0E8vodFVaxyBwkEEcuZjdjy8LdY6qS0hkZlMpkcfRZxahp0S43pk6n/ZdU3RxS/3I29/10rP/gQXA12I69b6pjt/b5/XhOOrYdrF4uOnG2knjLEaIlScRhPrfMkwLk83TKtldO1ONOpMJ3OckjVuhfLBVKCHfAjwulhRRsCZvTydfJJQ0bwtFGzVagip1rIMjKYGuajQ5ccInuQrTIG2h2U+Rq0dszZzAYGpDY7bHc4KwmxbSoIS4k11HEG51Sk3PnfL8HNhohEkxCZsuGsuswPezwihJMDNv2/kJPKCYLnJkpbWeA6i+s+YGTKFojq6nRYmYzF7EqtiSeGWma5L+QDkUnjaK3e/Pjc+sycrPrDSWQluh93hEcHTW9k+8/7lznuw3ff39v/Opd+8f5B88OJWsHRiN52OfpyKqUr3+TOFODpimmmk1TkyB8pEDwGf6Pkh1UaFQvJL5RxN97lqJGdk9fICEeakH7ySlVg6g8NTOaRRNDTdBTrshdrqDhrwLj5ejkiGpqQPAHgpQjaFXYBsCvomkirQQPY12rQJehWcHKb4mfRO4rbKyR2QSxB01bfSuph6IWG8TDnkalOlD6Tcnc44iWApwVOvEJqNRk5Ba67jQYTIP4gsK6mVxAYMiiKqaAR6K3an4ZtEpoba+LC4CCiAC7pRZlo7spE/Nu/7Sf33r77wA8PV3v+9TH+z30p2HV2fbW2q39b3837YoBCQhmXNkxDr5wmlmyhG7n3RvJx1+Zf97tWPhLq/y15RToueJWxeL7iAlUF9yfJHYS25BP8jsFhA/3FNR1FABckaZ/S7YwwXic3S+AEGVtOPZyyd67mDHQWbOJcounyP9b2fWemQwYihBz47xJyYLcT3l2FN0TAFo4zkGKYSmWpjMQHYTwVhrX5+jh4CEH4pIUDbPDVGVd7GiqmdGEBHFYMFwA2RhEtZ3UN6eaXGMoauU02h9h/Mf2Oq+RJe2aPK1LfXsX/5rL73lN891/1stAB+4dx1f7O71gTw8vLoyAYEBX7iZXg0y/zhsuUZrGJx2AJEBFKiUe4FMYu89DWaK3CnROCjK4AZ4FEw/8NDlinP7cM4cG0zP6vTFY2MlGJEMW6lmHIeW8RxF+KDvdHwsGTEYDvROQSuLWYmmGkwjXZUpPU1kborH5xISc9DJOWobQNFCEzmJzIpOxpSKdUmiV5x+rsUicorH4uDOKMPeLLQIINdGynejpg9A76teihzoJ/aXhdRuooKo7FjLIck98JCpLOyB+J2JJ8jcilr6grSjwJMfTYzQcC/2E7bQNdp8bjmkN/9Wc939Vt/8qXv+t3N3vu6/2Phu/CPHlyMOhjJonna7mGRLF/2Cs/LlTP50QsA4/j3vmi40gYjviM1aXTUtYu4IIJmDAI0Mq9LvcSHUrNw8u4VX6QgwQVl6L2IBnlk0jZxk5Q50tEqdVFtQYsJhtAke2d83McVNP4q1mKWB7IIkUpdVdU5h7SHVP6PpSPPIOLKTmfQD8tMpFNJdqH50SohO7N5IQMPTxxa2nnplRCMphvutloHoibt0vZ58TccOK5U4x/mAtJTbiO6p+Edv0kAg5390NBK7ISUM6wXNhCeu/tb3/M2X/esvewHg62d+4e//4lve+L1XOeD4+s068+wACUVQ/bKRed9l8qQbbLuKfhlnoKD+LvTybIFalWvfEKnMVBvR4rM34eJKeIdIgmhIuXr6cbobFFFur+jbssI+mLvRFxbpaSwGHHcvoYK0RbQmoa7hsTCJrCbXQ2Q3pbAtDLV00rYkZHAp4AjEZMLVbH1it5KVVyFwMH9WG7eJvLv0hcwWspK6o5gD+GDZTcQY2N4o2cKkgSrmYmG2UK4DzTOZcSxhfap0/2weFT0aB3BTSVELCCKof1AzieN+Zn5/sv1V+f7/6r99xf/8283zb7sA8PVvf+5//dff8g3fc4tD+DvQeWq71QthpyL8m1V9ocKQKrNed2nawjBLCQ4JSLBWuuUqtIQzMYM1LWAR7YtfhnR8imiCLOCoHrfkSlCylVRwYZ2qledxK0IptIeIBLhYAc+7lfi81DQJUgMLzFokqEQM6fyBFDSstHlkFq1G2bepYsj/huajS/RSWmx0nhCbP6kzCj4B0MVFULUYumAUOV5ZFC7cSWVzi97Wx4l9l3HDgcnFic0fWN9QQm2FHEddc1OMLE3b2tavdwlj3UHiJh3GCOA3Mnr9kff8zVe9+3ea42Rfxtff+RsPftC30Z1ErxktRoqtTkW3q6TChtSPlCP1NN2NXGmdtzDGA8ERLALcA4EiiO4a+f4wrdKPVcqb+04uBDwEJFJd36uUCuYP+Qf0R2Oj6y0HhyER/uPuxVBEeMf6hlkHQjFn0F5bHEbHdnejpehkxCSLL55Zzp/XbTuvMtyqERJHh48aO5SNNJS3v3TplP93UkKXrAxZGiRvGzrpE+BSYOhYFNLj0Am13l0sPJG20hlFwt49F8mW6u9RZt1n98iiAsrxGEJqnChGlS684ma657/566988+82t1/WAsDX3/3v7n+/v+h3T5O8OkD9Es2MwS0zz7HlmTSQIe+j+6ipKxUXRxKCDSSnvcAWoCmUM/ors3A4qSx2IXVuWRkufyGyXz06CmEyt1tWMUm3JdKDADJpdyndLBEKtYB8WRWXMOyyGjKsHKErMM6o7ifoYMKeRDoXSfgkQs3cRQ5CISqsBnPwSDObuq5yd/s7XDy+2p5+9tD/3dMFUcjJIXBUAFrdJ3mR5miaLYBYQyyL9rGohIY8LHVb4g2+xqQ0PMKBS04tX55xNAyyMiecOFzRVfob/chf+yu3vfPLmdfOvsyvn/rw3/+JP/bmv5z8oe9EuzT2s91I2cIDlmblqit69ZSOjaQs6NAaZAeVqxH351nt1kTOmEDmiN08cuKBkBOF8BsCOvj1Qn8/EgcwfmdbGimQ2BiKpFCvathO9YmFxS6BiLEbZ7mmuShOJkuGvH10HmPjCIhMU4BKsm1TtL5T0yVKLQJl95EeZjiGn0dnESzk5WJry9XIeB0M3xyJIFyFxZtJB2/ObJiZyaz2vhCOtoP/XAthZg8vdGHbqEFmPaZCCy7p4la9jWs5UkcWMJ9d90N//Xtu/8tf7rx+2Ragff0ff/uT7/Zk3vdt1+mwjD13E0/hwlpyEnrP0ex6UoPI/YOOL4R4ebUoLJ9m8NDJ3U9N398k3+04DR8oWoO+NXRM5Hd5Ytn2yBfKVsVLpcZbyK/3TF+LnxhzH3E8iincT/uiQcu5TNXupLKuLHEqNQm9spWsIexa+waJN5X50bOlSFCwEWSVipqKaZ67pN8jPimqB1B/H19Y2xUzgkc+ZjhqbtwuCDop989RUudWdOWLZc3uoACgk+1BeGIoQjmidB6WBHL7o2llTx1fRZ7gsuMCB6bnPBfz/f/93/jm930F0/mVLwB8/fAP3HvGh+2DvqrPsC0pa86MNXM85yukzmh01A26TSa69U/soz/dJC67C+rYWtFkitbxSHcCzQ5RWNGFKmfmf+AkpkkZNDZCYhVuKwvrd5FI6ULPh6gAotcxdnLIz+mXmfbXmUUlmmCwsgfX65WuXkTLWxqSKo5DXKaaMUkHkFTQklM0uhZYJKOYlboeMrv4M+k0boAVFo702UmCJe0l0uNwLetZtYuoi8ismj6mq6BYvshVbNEk0m2Du4J7LtbxXX/rPd9w1r7Cr9/TAmhf//AHPvJOjxC+b9zWM8zGwZ/3OmWbfPlipeKGFLUFKFY8gY5e6qqBpgtxyhFz24VkTiaYpNZ/6CK3X3dRhVKvwTrmKLYsYtoa0k9VAwVYt4VqeZro/wfkFjBd0X1LFJNAIaXTVSTU3KxOkvntq5S6vGrVYZdENax7UB8gLhBTqVeNukq4QuZLLCwHg/5BJhxVvNueoBFXR7YRCacabuF4DCbIXct6s6SwBsfZtuzi0nmJpY3nHAR+/3f9l3/kK9r1f2ALAF93/8AvnJny4p2eCftuf/Mz7IEz6tSr4i+oI+n8xfyFhgMHcMvB8z4DgVC/Cu0dQ0mVNEGyjDP+kAvvoTpydnHc6rw/JSV0CE6Op687LyAquU7omdPzKNb1ViwZtRdUycoeY0fpwG2RLeq2Efl1SNbmOHAhafFZuBoslMUQmsQiZQ2jUZJC7PIURbDRxJpBDZkmUtz00XzyUSGyqZ8wcgXQLiyiGBYp6C15cbXnQcYRVmGkILXaqeV8LqWjH1ptj95313vuOme/j6/f9wJoXz/6w/eeuXhU7uzr8rsdFN45bqK9M4o6BlG8NPQUQmbSqJlgbavwCSZvGaCq13H0BN7DrLKoEkfMot6dHUsKs2sW/YMxYMgBoCsxO4ambteff2tKGi0QxM8693SvT0HuIlvZM5sIInuO7BcPoK6qLJDIlUV4YiuLhCCt2JPhcJwbBJMExXMJho81FVElTAjJiEVua+KJTiKSdLRcUQk3GEAH00doTp2OGN+vZzSBWt2zGMafnBf5/e9616t/XxPfvv7AFsBzv+7+wU+fcet4Z5nmO51Ve1WtizuYIWNDZ1TCVqpUc2sthF1XpLsbFtLYoakRwDX7ZoJ6ZsbHyZGTOrsXPxzZV6zjKSdQ08KX70FQSSZPKmUg8NrniNFngj6AyX1MUpmjdlGnbLRS8xwRg8K9OfQFqgAi89lqI9jZJCqqQ+NHm1Ca9RBQJcBjSELAwb5+OslD5fNcJKSaRfosJB11Ond51rHBPR6efmhYXf0Td/0BTfpzv/6jLIDf6uvuH/z8Hf7Hoc/pHe7PDh0w3+wjcOiY8ZB05myHnsM+XPTrXcsXR9lnYCk2RMyThBCsDZ9JliCyQAn2ZqPj7JIDKyQQR8bz0vkD3TMMK7O1U8+lZsr8eZznQGDGCCX69VIVjQSVcqo036h0Yksci9S46QBsgN6O5VoljrYP5TFFGDyQ66wFg9hRCwZeYHFWWcByltXZaXqoDPmscwHnDqbh43/0XV85oPu9fP3/uXmq6J99JDIAAAAASUVORK5CYII=" vertex="1" parent="s52yxfLQdtsxLLi5Z9a8-32">
          <mxGeometry width="45" height="45" as="geometry" />
        </mxCell>
        <mxCell id="s52yxfLQdtsxLLi5Z9a8-30" value="&lt;font face=&quot;Times New Roman&quot;&gt;Embeding-ada 002&lt;/font&gt;" style="text;html=1;align=center;verticalAlign=middle;whiteSpace=wrap;rounded=0;" vertex="1" parent="s52yxfLQdtsxLLi5Z9a8-32">
          <mxGeometry x="45" y="7.5" width="110" height="30" as="geometry" />
        </mxCell>
        <mxCell id="s52yxfLQdtsxLLi5Z9a8-35" value="" style="endArrow=classic;html=1;rounded=0;exitX=1;exitY=0.25;exitDx=0;exitDy=0;strokeColor=light-dark(#000000,#FF8000);" edge="1" parent="s52yxfLQdtsxLLi5Z9a8-65" source="s52yxfLQdtsxLLi5Z9a8-16">
          <mxGeometry width="50" height="50" relative="1" as="geometry">
            <mxPoint x="530" y="165" as="sourcePoint" />
            <mxPoint x="240" y="229" as="targetPoint" />
          </mxGeometry>
        </mxCell>
        <mxCell id="s52yxfLQdtsxLLi5Z9a8-37" value="" style="endArrow=classic;html=1;rounded=0;exitX=1;exitY=0.5;exitDx=0;exitDy=0;strokeColor=light-dark(#000000,#0000FF);" edge="1" parent="s52yxfLQdtsxLLi5Z9a8-65" target="s52yxfLQdtsxLLi5Z9a8-50">
          <mxGeometry width="50" height="50" relative="1" as="geometry">
            <mxPoint x="390" y="84.58000000000004" as="sourcePoint" />
            <mxPoint x="440" y="85" as="targetPoint" />
          </mxGeometry>
        </mxCell>
        <mxCell id="s52yxfLQdtsxLLi5Z9a8-38" value="" style="endArrow=classic;html=1;rounded=0;exitX=1;exitY=0.5;exitDx=0;exitDy=0;strokeColor=light-dark(#000000,#FF8000);" edge="1" parent="s52yxfLQdtsxLLi5Z9a8-65" target="s52yxfLQdtsxLLi5Z9a8-50">
          <mxGeometry width="50" height="50" relative="1" as="geometry">
            <mxPoint x="390" y="252.08000000000004" as="sourcePoint" />
            <mxPoint x="440" y="253" as="targetPoint" />
          </mxGeometry>
        </mxCell>
        <mxCell id="s52yxfLQdtsxLLi5Z9a8-43" value="&lt;font style=&quot;font-size: 12px;&quot; face=&quot;Times New Roman&quot;&gt;Prompt&lt;/font&gt;" style="sketch=0;outlineConnect=0;fontColor=#232F3E;gradientColor=none;strokeColor=#ffffff;fillColor=#232F3E;dashed=0;verticalLabelPosition=middle;verticalAlign=bottom;align=center;html=1;whiteSpace=wrap;fontSize=10;fontStyle=1;spacing=3;shape=mxgraph.aws4.productIcon;prIcon=mxgraph.aws4.comprehend;" vertex="1" parent="s52yxfLQdtsxLLi5Z9a8-65">
          <mxGeometry x="735" y="15" width="70" height="90" as="geometry" />
        </mxCell>
        <mxCell id="s52yxfLQdtsxLLi5Z9a8-47" value="" style="group" vertex="1" connectable="0" parent="s52yxfLQdtsxLLi5Z9a8-65">
          <mxGeometry x="600" y="50" width="90" height="230" as="geometry" />
        </mxCell>
        <mxCell id="s52yxfLQdtsxLLi5Z9a8-40" value="&lt;b&gt;&lt;font style=&quot;color: light-dark(rgb(0, 0, 0), rgb(51, 51, 255));&quot;&gt;Post-Retrieval&lt;/font&gt;&lt;/b&gt;" style="text;html=1;align=center;verticalAlign=middle;whiteSpace=wrap;rounded=1;fillColor=light-dark(#FFFFFF,transparent);" vertex="1" parent="s52yxfLQdtsxLLi5Z9a8-47">
          <mxGeometry width="90" height="30" as="geometry" />
        </mxCell>
        <mxCell id="s52yxfLQdtsxLLi5Z9a8-41" value="&lt;font face=&quot;Times New Roman&quot;&gt;Rerank&lt;/font&gt;" style="sketch=0;outlineConnect=0;fontColor=#232F3E;gradientColor=none;strokeColor=#232F3E;fillColor=#ffffff;dashed=0;verticalLabelPosition=bottom;verticalAlign=top;align=center;html=1;fontSize=12;fontStyle=0;aspect=fixed;shape=mxgraph.aws4.resourceIcon;resIcon=mxgraph.aws4.message;" vertex="1" parent="s52yxfLQdtsxLLi5Z9a8-47">
          <mxGeometry x="25" y="30" width="40" height="40" as="geometry" />
        </mxCell>
        <mxCell id="s52yxfLQdtsxLLi5Z9a8-44" value="&lt;font style=&quot;font-weight: normal; font-size: 12px;&quot; face=&quot;Times New Roman&quot;&gt;Summary&lt;/font&gt;" style="sketch=0;outlineConnect=0;fontColor=#232F3E;gradientColor=none;strokeColor=#ffffff;fillColor=#232F3E;dashed=0;verticalLabelPosition=middle;verticalAlign=bottom;align=center;html=1;whiteSpace=wrap;fontSize=10;fontStyle=1;spacing=3;shape=mxgraph.aws4.productIcon;prIcon=mxgraph.aws4.management_console;" vertex="1" parent="s52yxfLQdtsxLLi5Z9a8-47">
          <mxGeometry x="25" y="100" width="40" height="60" as="geometry" />
        </mxCell>
        <mxCell id="s52yxfLQdtsxLLi5Z9a8-45" value="&lt;span style=&quot;font-weight: normal;&quot;&gt;&lt;font style=&quot;font-size: 12px;&quot; face=&quot;Times New Roman&quot;&gt;Fusion&lt;/font&gt;&lt;/span&gt;" style="sketch=0;outlineConnect=0;fontColor=#232F3E;gradientColor=none;strokeColor=#ffffff;fillColor=#232F3E;dashed=0;verticalLabelPosition=middle;verticalAlign=bottom;align=center;html=1;whiteSpace=wrap;fontSize=10;fontStyle=1;spacing=3;shape=mxgraph.aws4.productIcon;prIcon=mxgraph.aws4.elemental_mediaconvert;" vertex="1" parent="s52yxfLQdtsxLLi5Z9a8-47">
          <mxGeometry x="25" y="165" width="40" height="65" as="geometry" />
        </mxCell>
        <mxCell id="s52yxfLQdtsxLLi5Z9a8-46" value="" style="rounded=1;whiteSpace=wrap;html=1;fillColor=light-dark(#FFFFFF,transparent);strokeWidth=2;" vertex="1" parent="s52yxfLQdtsxLLi5Z9a8-47">
          <mxGeometry width="90" height="230" as="geometry" />
        </mxCell>
        <mxCell id="s52yxfLQdtsxLLi5Z9a8-48" value="" style="endArrow=classic;html=1;rounded=0;jumpSize=6;entryX=0;entryY=0.5;entryDx=0;entryDy=0;strokeColor=light-dark(#000000,#3333FF);" edge="1" parent="s52yxfLQdtsxLLi5Z9a8-65" source="s52yxfLQdtsxLLi5Z9a8-50" target="s52yxfLQdtsxLLi5Z9a8-46">
          <mxGeometry width="50" height="50" relative="1" as="geometry">
            <mxPoint x="500" y="165" as="sourcePoint" />
            <mxPoint x="598" y="158" as="targetPoint" />
          </mxGeometry>
        </mxCell>
        <mxCell id="s52yxfLQdtsxLLi5Z9a8-50" value="&lt;font style=&quot;font-size: 12px;&quot; face=&quot;Times New Roman&quot;&gt;Rertieval&lt;/font&gt;" style="sketch=0;outlineConnect=0;fontColor=#232F3E;gradientColor=none;strokeColor=#ffffff;fillColor=#232F3E;dashed=0;verticalLabelPosition=middle;verticalAlign=bottom;align=center;html=1;whiteSpace=wrap;fontSize=10;fontStyle=1;spacing=3;shape=mxgraph.aws4.productIcon;prIcon=mxgraph.aws4.cloudsearch;" vertex="1" parent="s52yxfLQdtsxLLi5Z9a8-65">
          <mxGeometry x="412.28999999999996" y="120" width="70" height="90" as="geometry" />
        </mxCell>
        <mxCell id="s52yxfLQdtsxLLi5Z9a8-51" value="" style="endArrow=classic;html=1;rounded=0;jumpSize=6;exitX=1;exitY=0.5;exitDx=0;exitDy=0;strokeColor=light-dark(#000000,#3333FF);" edge="1" parent="s52yxfLQdtsxLLi5Z9a8-65" source="s52yxfLQdtsxLLi5Z9a8-46" target="s52yxfLQdtsxLLi5Z9a8-43">
          <mxGeometry width="50" height="50" relative="1" as="geometry">
            <mxPoint x="520" y="175" as="sourcePoint" />
            <mxPoint x="560" y="175" as="targetPoint" />
          </mxGeometry>
        </mxCell>
        <mxCell id="s52yxfLQdtsxLLi5Z9a8-52" value="" style="group;rounded=1;spacingBottom=0;fontFamily=Times New Roman;" vertex="1" connectable="0" parent="s52yxfLQdtsxLLi5Z9a8-65">
          <mxGeometry x="700" y="145" width="140" height="40" as="geometry" />
        </mxCell>
        <mxCell id="s52yxfLQdtsxLLi5Z9a8-53" value="" style="shape=image;verticalLabelPosition=bottom;verticalAlign=top;imageAspect=0;aspect=fixed;image=data:image/svg+xml,PHN2ZyB4bWxucz0iaHR0cDovL3d3dy53My5vcmcvMjAwMC9zdmciIHdpZHRoPSIwLjkxNjY0MDM2MTE1MDEwNTgiIHZpZXdCb3g9IjEuMDAwMzE2NjE5ODczMDQ2OSAxLjk5OTcxNjI4MTg5MDg2OTEgMjEuOTk5MzY4NjY3NjAyNTQgMjAuMDAwMjg0MTk0OTQ2MjkiIHN0eWxlPSJmbGV4Om5vbmU7bGluZS1oZWlnaHQ6MSIgaGVpZ2h0PSIwLjgzMzM0NTE3NDc4OTQyODciPjx0aXRsZT5IdWdnaW5nRmFjZTwvdGl0bGU+PGcgZmlsbC1ydWxlPSJub256ZXJvIiBmaWxsPSJub25lIj48cGF0aCBmaWxsPSIjRkY5RDBCIiBkPSJNMi4yNSAxMS41MzVjMC0zLjQwNyAxLjg0Ny02LjU1NCA0Ljg0NC04LjI1OGE5LjgyMiA5LjgyMiAwIDAxOS42ODcgMGMyLjk5NyAxLjcwNCA0Ljg0NCA0Ljg1MSA0Ljg0NCA4LjI1OCAwIDUuMjY2LTQuMzM3IDkuNTM1LTkuNjg3IDkuNTM1UzIuMjUgMTYuOCAyLjI1IDExLjUzNXoiLz48cGF0aCBmaWxsPSIjRkZEMjFFIiBkPSJNMTEuOTM4IDIwLjA4NmM0Ljc5NyAwIDguNjg3LTMuODI5IDguNjg3LTguNTUxIDAtNC43MjItMy44OS04LjU1LTguNjg3LTguNTUtNC43OTggMC04LjY4OCAzLjgyOC04LjY4OCA4LjU1IDAgNC43MjIgMy44OSA4LjU1IDguNjg4IDguNTV6Ii8+PHBhdGggZmlsbD0iI0ZGMzIzRCIgZD0iTTExLjg3NSAxNS4xMTNjMi40NTcgMCAzLjI1LTIuMTU2IDMuMjUtMy4yNjMgMC0uNTc2LS4zOTMtLjM5NC0xLjAyMy0uMDg5LS41ODIuMjgzLTEuMzY1LjY3NS0yLjIyNC42NzUtMS43OTggMC0zLjI1LTEuNjkzLTMuMjUtLjU4NiAwIDEuMTA3Ljc5IDMuMjYzIDMuMjUgMy4yNjNoLS4wMDN6Ii8+PHBhdGggZmlsbD0iIzNBM0I0NSIgZD0iTTE0Ljc2IDkuMjFjLjMyLjEwOC40NDUuNzUzLjc2Ny41ODUuNDQ3LS4yMzMuNzA3LS43MDguNjU5LTEuMjA0YTEuMjM1IDEuMjM1IDAgMDAtLjg3OS0xLjA1OSAxLjI2MiAxLjI2MiAwIDAwLTEuMzMuMzk0Yy0uMzIyLjM4NC0uMzc3LjkyLS4xNCAxLjM2LjE1My4yODMuNjM4LS4xNzcuOTI1LS4wNzlsLS4wMDIuMDAzem0tNS44ODcgMGMtLjMyLjEwOC0uNDQ4Ljc1My0uNzY4LjU4NWExLjIyNiAxLjIyNiAwIDAxLS42NTgtMS4yMDRjLjA0OC0uNDk1LjM5NS0uOTEzLjg3OC0xLjA1OWExLjI2MiAxLjI2MiAwIDAxMS4zMy4zOTRjLjMyMi4zODQuMzc3LjkyLjE0IDEuMzYtLjE1Mi4yODMtLjY0LS4xNzctLjkyNS0uMDc5bC4wMDMuMDAzem0xLjEyIDUuMzRhMi4xNjYgMi4xNjYgMCAwMTEuMzI1LTEuMTA2Yy4wNy0uMDIuMTQ0LjA2LjIxOS4xNzFsLjE5Mi4zMDZjLjA2OS4xLjEzOS4xNzUuMjA5LjE3NS4wNzQgMCAuMTUtLjA3NC4yMjMtLjE3MmwuMjA1LS4zMDJjLjA4LS4xMS4xNTctLjE4OC4yMzQtLjE2NS41MzcuMTY4Ljk4Ni41MzYgMS4yNSAxLjAyNi45MzItLjcyNCAxLjI3NS0xLjkwNSAxLjI3NS0yLjYzMyAwLS41MDgtLjMwNi0uNDI2LS44MS0uMTlsLS42MTYuMjk2Yy0uNTIuMjQtMS4xNDguNDgtMS44MjQuNDgtLjY3NiAwLTEuMzAyLS4yNC0xLjgyMy0uNDhsLS41ODktLjI4M2MtLjUyLS4yNDgtLjgzOC0uMzQyLS44MzguMTc3IDAgLjcwMy4zMiAxLjgzMSAxLjE4NyAyLjU2bC4xOC4xNHoiLz48cGF0aCBmaWxsPSIjRkY5RDBCIiBkPSJNMTcuODEyIDEwLjM2NmEuODA2LjgwNiAwIDAwLjgxMy0uOGMwLS40NDEtLjM2NC0uOC0uODEzLS44YS44MDYuODA2IDAgMDAtLjgxMi44YzAgLjQ0Mi4zNjQuOC44MTIuOHptLTExLjYyNCAwYS44MDYuODA2IDAgMDAuODEyLS44YzAtLjQ0MS0uMzY0LS44LS44MTItLjhhLjgwNi44MDYgMCAwMC0uODEzLjhjMCAuNDQyLjM2NC44LjgxMy44ek00LjUxNSAxMy4wNzNjLS40MDUgMC0uNzY1LjE2Mi0xLjAxNy40NmExLjQ1NSAxLjQ1NSAwIDAwLS4zMzMuOTI1IDEuODAxIDEuODAxIDAgMDAtLjQ4NS0uMDc0Yy0uMzg3IDAtLjczNy4xNDYtLjk4NS40MDlhMS40MSAxLjQxIDAgMDAtLjIgMS43MjIgMS4zMDIgMS4zMDIgMCAwMC0uNDQ3LjY5NGMtLjA2LjIyMi0uMTIuNjkuMiAxLjE2NmExLjI2NyAxLjI2NyAwIDAwLS4wOTMgMS4yMzZjLjIzOC41MzMuODEuOTU4IDEuODkgMS40MDVsLjI0LjA5NmMuNzY4LjMgMS40NzMuNDkyIDEuNDc4LjQ5NC44OS4yNDMgMS44MDguMzc1IDIuNzMyLjM5NCAxLjQ2NSAwIDIuNTEzLS40NDMgMy4xMTUtMS4zMTQuOTMtMS4zNDIuODQyLTIuNTc1LS4yNzQtMy43NjNsLS4xNTEtLjE1NGMtLjY5Mi0uNjg0LTEuMTU1LTEuNjktMS4yNS0xLjkxMi0uMTk1LS42NTUtLjcxLTEuMzgzLTEuNTYyLTEuMzgzLS40Ni4wMDctLjg4OS4yMzMtMS4xNS42MDUtLjI1LS4zMS0uNDk1LS41NTMtLjcxNS0uNjk0YTEuODcgMS44NyAwIDAwLS45OTMtLjMxMnptMTQuOTcgMGMuNDA1IDAgLjc2Ny4xNjIgMS4wMTcuNDYuMjE2LjI2Mi4zMzMuNTg4LjMzMy45MjUuMTU4LS4wNDcuMzIyLS4wNzEuNDg3LS4wNzQuMzg4IDAgLjczOC4xNDYuOTg1LjQwOWExLjQxIDEuNDEgMCAwMS4yIDEuNzIyYy4yMi4xNzguMzc3LjQyMi40NDUuNjk0LjA2LjIyMi4xMi42OS0uMiAxLjE2Ni4yNDQuMzcuMjc5LjgzNi4wOTMgMS4yMzYtLjIzOC41MzMtLjgxLjk1OC0xLjg4OSAxLjQwNWwtLjIzOS4wOTZjLS43Ny4zLTEuNDc1LjQ5Mi0xLjQ4LjQ5NC0uODkuMjQzLTEuODA4LjM3NS0yLjczMi4zOTQtMS40NjUgMC0yLjUxMy0uNDQzLTMuMTE1LTEuMzE0LS45My0xLjM0Mi0uODQyLTIuNTc1LjI3NC0zLjc2M2wuMTUxLS4xNTRjLjY5NS0uNjg0IDEuMTU3LTEuNjkgMS4yNTItMS45MTIuMTk1LS42NTUuNzA4LTEuMzgzIDEuNTYtMS4zODMuNDYuMDA3Ljg4OS4yMzMgMS4xNS42MDUuMjUtLjMxLjQ5NS0uNTUzLjcxOC0uNjk0LjI0NC0uMTYyLjUyMy0uMjY1LjgxNC0uM2wuMTc2LS4wMTJ6Ii8+PHBhdGggZmlsbD0iI0ZGRDIxRSIgZD0iTTkuNzg1IDIwLjEzMmMuNjg4LS45OTQuNjM4LTEuNzQtLjMwNS0yLjY2Ny0uOTQ1LS45MjgtMS40OTUtMi4yODgtMS40OTUtMi4yODhzLS4yMDUtLjc4OC0uNjcyLS43MTRjLS40NjguMDc0LS44MSAxLjI1LjE3IDEuOTcxLjk3Ny43MjEtLjE5NSAxLjIxLS41NzMuNTM0LS4zNzUtLjY3Ny0xLjQwNS0yLjQxNi0xLjk0LTIuNzUxLS41MzItLjMzMi0uOTA3LS4xNDgtLjc4Mi41NDEuMTI1LjY4NyAyLjM1NyAyLjM1IDIuMTQgMi43MDctLjIxOC4zNjItLjk4My0uNDItLjk4My0uNDJTMi45NTMgMTQuOSAyLjQzIDE1LjQ2Yy0uNTIuNTU4LjM5OCAxLjAyNiAxLjcgMS44MDMgMS4zMDguNzc4IDEuNDEuOTg1IDEuMjI1IDEuMjgtLjE4Ny4yOTUtMy4wNy0yLjEtMy4zNC0xLjA4My0uMjcgMS4wMTEgMi45NDMgMS4zMDQgMi43NDUgMi4wMDYtLjIuNy0yLjI2NS0xLjMyNC0yLjY4NS0uNTM3LS40MjUuNzkgMi45MTMgMS43MTggMi45NCAxLjcyNSAxLjA3NS4yNzYgMy44MTMuODU5IDQuNzctLjUyMnptNC40MzIgMGMtLjY4Ny0uOTk0LS42NC0xLjc0LjMwNS0yLjY2Ny45NDMtLjkyOCAxLjQ5My0yLjI4OCAxLjQ5My0yLjI4OHMuMjA1LS43ODguNjc1LS43MTRjLjQ2NS4wNzQuODA3IDEuMjUtLjE3IDEuOTcxLS45OC43MjEuMTk1IDEuMjEuNTcuNTM0LjM3Ny0uNjc3IDEuNDA3LTIuNDE2IDEuOTQtMi43NTEuNTMyLS4zMzIuOTEtLjE0OC43ODIuNTQxLS4xMjUuNjg3LTIuMzU1IDIuMzUtMi4xMzcgMi43MDcuMjE1LjM2Mi45OC0uNDIuOTgtLjQyUzIxLjA1IDE0LjkgMjEuNTcgMTUuNDZjLjUyLjU1OC0uMzk1IDEuMDI2LTEuNyAxLjgwMy0xLjMwOC43NzgtMS40MDguOTg1LTEuMjI1IDEuMjguMTg3LjI5NSAzLjA3LTIuMSAzLjM0LTEuMDgzLjI3IDEuMDExLTIuOTQgMS4zMDQtMi43NDMgMi4wMDYuMi43IDIuMjYzLTEuMzI0IDIuNjg1LS41MzcuNDIzLjc5LTIuOTEyIDEuNzE4LTIuOTQgMS43MjUtMS4wNzcuMjc2LTMuODE1Ljg1OS00Ljc3LS41MjJ6Ii8+PC9nPjwvc3ZnPg==;rounded=1;spacingBottom=0;fontFamily=Times New Roman;" vertex="1" parent="s52yxfLQdtsxLLi5Z9a8-52">
          <mxGeometry width="40" height="40" as="geometry" />
        </mxCell>
        <mxCell id="s52yxfLQdtsxLLi5Z9a8-54" value="Fine Tuned&amp;nbsp;&#xa;NÃ¼shu Agent&amp;nbsp;Model" style="text;html=1;align=center;verticalAlign=middle;whiteSpace=wrap;rounded=1;spacingBottom=0;fontFamily=Times New Roman;" vertex="1" parent="s52yxfLQdtsxLLi5Z9a8-52">
          <mxGeometry x="40" y="5" width="100" height="30" as="geometry" />
        </mxCell>
        <mxCell id="s52yxfLQdtsxLLi5Z9a8-58" style="edgeStyle=orthogonalEdgeStyle;rounded=0;orthogonalLoop=1;jettySize=auto;html=1;entryX=0.299;entryY=0.113;entryDx=0;entryDy=0;entryPerimeter=0;strokeColor=light-dark(#000000,#3333FF);" edge="1" parent="s52yxfLQdtsxLLi5Z9a8-65" source="s52yxfLQdtsxLLi5Z9a8-43" target="s52yxfLQdtsxLLi5Z9a8-54">
          <mxGeometry relative="1" as="geometry" />
        </mxCell>
        <mxCell id="s52yxfLQdtsxLLi5Z9a8-59" value="&lt;font style=&quot;font-size: 12px;&quot; face=&quot;Times New Roman&quot;&gt;Output&lt;/font&gt;" style="sketch=0;outlineConnect=0;fontColor=#232F3E;gradientColor=none;strokeColor=#ffffff;fillColor=#232F3E;dashed=0;verticalLabelPosition=middle;verticalAlign=bottom;align=center;html=1;whiteSpace=wrap;fontSize=10;fontStyle=1;spacing=3;shape=mxgraph.aws4.productIcon;prIcon=mxgraph.aws4.lex;" vertex="1" parent="s52yxfLQdtsxLLi5Z9a8-65">
          <mxGeometry x="735" y="205" width="70" height="90" as="geometry" />
        </mxCell>
        <mxCell id="s52yxfLQdtsxLLi5Z9a8-61" value="" style="endArrow=classic;html=1;rounded=0;exitX=0.312;exitY=0.968;exitDx=0;exitDy=0;exitPerimeter=0;strokeColor=light-dark(#000000,#3333FF);" edge="1" parent="s52yxfLQdtsxLLi5Z9a8-65" source="s52yxfLQdtsxLLi5Z9a8-54">
          <mxGeometry width="50" height="50" relative="1" as="geometry">
            <mxPoint x="741" y="145" as="sourcePoint" />
            <mxPoint x="771" y="205" as="targetPoint" />
          </mxGeometry>
        </mxCell>
        <mxCell id="s52yxfLQdtsxLLi5Z9a8-63" value="&lt;div style=&quot;text-align: left; text-wrap-mode: nowrap;&quot;&gt;&lt;font face=&quot;Times New Roman&quot;&gt;&lt;b&gt;&quot;Character_Info&quot;:&amp;nbsp;&lt;/b&gt;&lt;/font&gt;&lt;/div&gt;&lt;div style=&quot;text-align: left; text-wrap-mode: nowrap;&quot;&gt;&lt;font face=&quot;Times New Roman&quot;&gt;&lt;b&gt;{&lt;span style=&quot;background-color: transparent; color: light-dark(rgb(0, 0, 0), rgb(255, 255, 255));&quot;&gt;&quot;character&quot;: &quot;ð›…°&quot;,&lt;/span&gt;&lt;/b&gt;&lt;/font&gt;&lt;/div&gt;&lt;div style=&quot;text-align: left; text-wrap-mode: nowrap;&quot;&gt;&lt;font face=&quot;Times New Roman&quot;&gt;&lt;b&gt;&amp;nbsp;&quot;chinese_char&quot;: &quot;ä¸€&quot;,&lt;/b&gt;&lt;/font&gt;&lt;/div&gt;&lt;div style=&quot;text-align: left; text-wrap-mode: nowrap;&quot;&gt;&lt;font face=&quot;Times New Roman&quot;&gt;&lt;b&gt;&amp;nbsp;&quot;pronunciation&quot;: &quot;i5&quot;,&lt;/b&gt;&lt;/font&gt;&lt;/div&gt;&lt;div style=&quot;text-align: left; text-wrap-mode: nowrap;&quot;&gt;&lt;font face=&quot;Times New Roman&quot;&gt;&lt;b&gt;&amp;nbsp;&quot;sequence&quot;: 0&lt;span style=&quot;background-color: transparent; color: light-dark(rgb(0, 0, 0), rgb(255, 255, 255));&quot;&gt;}&lt;/span&gt;&lt;/b&gt;&lt;/font&gt;&lt;/div&gt;" style="text;html=1;align=center;verticalAlign=middle;whiteSpace=wrap;rounded=0;" vertex="1" parent="s52yxfLQdtsxLLi5Z9a8-65">
          <mxGeometry x="110" y="235" width="120" height="80" as="geometry" />
        </mxCell>
        <mxCell id="s52yxfLQdtsxLLi5Z9a8-64" value="&lt;font face=&quot;Times New Roman&quot;&gt;&lt;b&gt;&quot;Source 1 (NÃ¼shu Character, similarity: 0.92):ð›…° 0 ä¸€ &quot;one&quot; radical in Chinese characters (Kangxi radical 1) i5&lt;span style=&quot;background-color: transparent; color: light-dark(rgb(0, 0, 0), rgb(255, 255, 255));&quot;&gt;......&quot;&lt;/span&gt;&lt;/b&gt;&lt;/font&gt;" style="text;html=1;align=left;verticalAlign=middle;whiteSpace=wrap;rounded=0;" vertex="1" parent="s52yxfLQdtsxLLi5Z9a8-65">
          <mxGeometry x="482.28999999999996" y="60" width="117.71" height="90" as="geometry" />
        </mxCell>
      </root>
    </mxGraphModel>
  </diagram>
</mxfile>
